<svg width="32" height="29" viewBox="0 0 32 29" fill="none" xmlns="http://www.w3.org/2000/svg">
<g filter="url(#filter0_d_2601_1821)">
<path d="M27.6598 4.81541C26.2019 3.31748 24.2693 2.40323 22.2112 2.2378C20.153 2.07238 18.105 2.66669 16.437 3.91338C14.6871 2.57954 12.509 1.97472 10.3413 2.2207C8.17368 2.46669 6.17748 3.5452 4.75473 5.23906C3.33198 6.93292 2.58835 9.11631 2.67359 11.3495C2.75883 13.5828 3.66661 15.7 5.21413 17.2748L13.7551 26.0414C14.4703 26.7627 15.4335 27.167 16.437 27.167C17.4405 27.167 18.4037 26.7627 19.1189 26.0414L27.6598 17.2748C29.2657 15.6191 30.167 13.3795 30.167 11.0451C30.167 8.71068 29.2657 6.47111 27.6598 4.81541V4.81541ZM25.7206 15.3297L17.1797 24.0823C17.0825 24.1829 16.9668 24.2627 16.8393 24.3172C16.7119 24.3717 16.5751 24.3997 16.437 24.3997C16.2989 24.3997 16.1621 24.3717 16.0346 24.3172C15.9072 24.2627 15.7915 24.1829 15.6943 24.0823L7.15337 15.2875C6.07477 14.1576 5.47079 12.6398 5.47079 11.0592C5.47079 9.47855 6.07477 7.96077 7.15337 6.83089C8.25249 5.71884 9.73487 5.09528 11.2794 5.09528C12.824 5.09528 14.3064 5.71884 15.4055 6.83089C15.5333 6.963 15.6854 7.06785 15.853 7.1394C16.0206 7.21096 16.2004 7.2478 16.382 7.2478C16.5635 7.2478 16.7433 7.21096 16.9109 7.1394C17.0785 7.06785 17.2306 6.963 17.3585 6.83089C18.4576 5.71884 19.94 5.09528 21.4845 5.09528C23.0291 5.09528 24.5114 5.71884 25.6106 6.83089C26.704 7.94596 27.3278 9.45552 27.3484 11.0362C27.3689 12.6169 26.7846 14.1429 25.7206 15.2875V15.3297Z" fill="#6701E1"/>
<path d="M27.6598 4.81541C26.2019 3.31748 24.2693 2.40323 22.2112 2.2378C20.153 2.07238 18.105 2.66669 16.437 3.91338C14.6871 2.57954 12.509 1.97472 10.3413 2.2207C8.17368 2.46669 6.17748 3.5452 4.75473 5.23906C3.33198 6.93292 2.58835 9.11631 2.67359 11.3495C2.75883 13.5828 3.66661 15.7 5.21413 17.2748L13.7551 26.0414C14.4703 26.7627 15.4335 27.167 16.437 27.167C17.4405 27.167 18.4037 26.7627 19.1189 26.0414L27.6598 17.2748C29.2657 15.6191 30.167 13.3795 30.167 11.0451C30.167 8.71068 29.2657 6.47111 27.6598 4.81541V4.81541ZM25.7206 15.3297L17.1797 24.0823C17.0825 24.1829 16.9668 24.2627 16.8393 24.3172C16.7119 24.3717 16.5751 24.3997 16.437 24.3997C16.2989 24.3997 16.1621 24.3717 16.0346 24.3172C15.9072 24.2627 15.7915 24.1829 15.6943 24.0823L7.15337 15.2875C6.07477 14.1576 5.47079 12.6398 5.47079 11.0592C5.47079 9.47855 6.07477 7.96077 7.15337 6.83089C8.25249 5.71884 9.73487 5.09528 11.2794 5.09528C12.824 5.09528 14.3064 5.71884 15.4055 6.83089C15.5333 6.963 15.6854 7.06785 15.853 7.1394C16.0206 7.21096 16.2004 7.2478 16.382 7.2478C16.5635 7.2478 16.7433 7.21096 16.9109 7.1394C17.0785 7.06785 17.2306 6.963 17.3585 6.83089C18.4576 5.71884 19.94 5.09528 21.4845 5.09528C23.0291 5.09528 24.5114 5.71884 25.6106 6.83089C26.704 7.94596 27.3278 9.45552 27.3484 11.0362C27.3689 12.6169 26.7846 14.1429 25.7206 15.2875V15.3297Z" fill="url(#paint0_linear_2601_1821)" fill-opacity="0.2"/>
</g>
<defs>
<filter id="filter0_d_2601_1821" x="0.944052" y="0.444052" width="30.9459" height="28.4459" filterUnits="userSpaceOnUse" color-interpolation-filters="sRGB">
<feFlood flood-opacity="0" result="BackgroundImageFix"/>
<feColorMatrix in="SourceAlpha" type="matrix" values="0 0 0 0 0 0 0 0 0 0 0 0 0 0 0 0 0 0 127 0" result="hardAlpha"/>
<feOffset/>
<feGaussianBlur stdDeviation="0.86147"/>
<feComposite in2="hardAlpha" operator="out"/>
<feColorMatrix type="matrix" values="0 0 0 0 0.403922 0 0 0 0 0.00392157 0 0 0 0 0.882353 0 0 0 1 0"/>
<feBlend mode="normal" in2="BackgroundImageFix" result="effect1_dropShadow_2601_1821"/>
<feBlend mode="normal" in="SourceGraphic" in2="effect1_dropShadow_2601_1821" result="shape"/>
</filter>
<linearGradient id="paint0_linear_2601_1821" x1="16.417" y1="2.16699" x2="16.417" y2="27.167" gradientUnits="userSpaceOnUse">
<stop stop-color="white"/>
<stop offset="1" stop-opacity="0"/>
</linearGradient>
</defs>
</svg>
