<svg width="24" height="23" viewBox="0 0 24 23" fill="none" xmlns="http://www.w3.org/2000/svg">
<path fill-rule="evenodd" clip-rule="evenodd" d="M7.51402 0.334553C8.72604 0.278757 9.11248 0.266357 12.1999 0.266357C15.2873 0.266357 15.6737 0.27979 16.8847 0.334553C18.0957 0.389316 18.9223 0.582536 19.6456 0.86255C20.4029 1.14876 21.0901 1.59617 21.6583 2.17479C22.237 2.74205 22.6833 3.42814 22.9685 4.18655C23.2496 4.90984 23.4418 5.73645 23.4976 6.94536C23.5534 8.15945 23.5658 8.54589 23.5658 11.6322C23.5658 14.7196 23.5523 15.1061 23.4976 16.3181C23.4428 17.527 23.2496 18.3536 22.9685 19.0769C22.6833 19.8354 22.2362 20.5226 21.6583 21.0907C21.0901 21.6693 20.4029 22.1157 19.6456 22.4009C18.9223 22.6819 18.0957 22.8741 16.8867 22.9299C15.6737 22.9857 15.2873 22.9981 12.1999 22.9981C9.11248 22.9981 8.72604 22.9847 7.51402 22.9299C6.30511 22.8752 5.4785 22.6819 4.75521 22.4009C3.99672 22.1157 3.30949 21.6686 2.74139 21.0907C2.16315 20.5231 1.71568 19.8362 1.43018 19.0779C1.15016 18.3546 0.957976 17.528 0.90218 16.3191C0.846384 15.105 0.833984 14.7186 0.833984 11.6322C0.833984 8.54485 0.847417 8.15841 0.90218 6.94743C0.956943 5.73645 1.15016 4.90984 1.43018 4.18655C1.7161 3.42822 2.16392 2.74134 2.74242 2.17376C3.30972 1.59565 3.99625 1.14819 4.75418 0.86255C5.47746 0.582536 6.30407 0.390349 7.51299 0.334553H7.51402ZM16.7927 2.38041C15.5941 2.32565 15.2346 2.31428 12.1999 2.31428C9.16518 2.31428 8.8056 2.32565 7.60702 2.38041C6.49833 2.43104 5.89697 2.616 5.49606 2.77202C4.966 2.97867 4.58679 3.22355 4.18899 3.62136C3.81189 3.98822 3.52169 4.43483 3.33964 4.92844C3.18362 5.32934 2.99867 5.9307 2.94804 7.03939C2.89328 8.23797 2.88191 8.59755 2.88191 11.6322C2.88191 14.6669 2.89328 15.0265 2.94804 16.2251C2.99867 17.3338 3.18362 17.9351 3.33964 18.336C3.5215 18.8289 3.81185 19.2763 4.18899 19.6431C4.55579 20.0203 5.0032 20.3106 5.49606 20.4925C5.89697 20.6485 6.49833 20.8334 7.60702 20.8841C8.8056 20.9388 9.16414 20.9502 12.1999 20.9502C15.2356 20.9502 15.5941 20.9388 16.7927 20.8841C17.9014 20.8334 18.5028 20.6485 18.9037 20.4925C19.4337 20.2858 19.8129 20.0409 20.2107 19.6431C20.5879 19.2763 20.8782 18.8289 21.0601 18.336C21.2161 17.9351 21.4011 17.3338 21.4517 16.2251C21.5065 15.0265 21.5178 14.6669 21.5178 11.6322C21.5178 8.59755 21.5065 8.23797 21.4517 7.03939C21.4011 5.9307 21.2161 5.32934 21.0601 4.92844C20.8534 4.39837 20.6086 4.01917 20.2107 3.62136C19.8439 3.24429 19.3973 2.95409 18.9037 2.77202C18.5028 2.616 17.9014 2.43104 16.7927 2.38041ZM10.7481 15.136C11.5589 15.4735 12.4617 15.5191 13.3023 15.2649C14.1429 15.0107 14.8692 14.4726 15.3571 13.7424C15.845 13.0122 16.0643 12.1353 15.9775 11.2614C15.8907 10.3875 15.5032 9.57086 14.8812 8.95093C14.4847 8.55465 14.0052 8.25121 13.4773 8.06247C12.9495 7.87373 12.3863 7.80438 11.8284 7.8594C11.2705 7.91443 10.7318 8.09247 10.2509 8.3807C9.77011 8.66893 9.35917 9.06019 9.0477 9.5263C8.73623 9.99241 8.53198 10.5218 8.44966 11.0763C8.36734 11.6308 8.40899 12.1967 8.57161 12.7332C8.73423 13.2697 9.01378 13.7635 9.39014 14.1789C9.76649 14.5944 10.2303 14.9213 10.7481 15.136ZM8.06889 7.50126C8.61137 6.95877 9.2554 6.52845 9.9642 6.23485C10.673 5.94126 11.4327 5.79015 12.1999 5.79015C12.9671 5.79015 13.7267 5.94126 14.4355 6.23485C15.1443 6.52845 15.7884 6.95877 16.3308 7.50126C16.8733 8.04375 17.3037 8.68777 17.5973 9.39657C17.8908 10.1054 18.042 10.865 18.042 11.6322C18.042 12.3994 17.8908 13.1591 17.5973 13.8679C17.3037 14.5767 16.8733 15.2207 16.3308 15.7632C15.2352 16.8588 13.7493 17.4743 12.1999 17.4743C10.6504 17.4743 9.16449 16.8588 8.06889 15.7632C6.97328 14.6676 6.35778 13.1817 6.35778 11.6322C6.35778 10.0828 6.97328 8.59686 8.06889 7.50126ZM19.3376 6.66018C19.4721 6.53337 19.5797 6.38087 19.6541 6.21172C19.7286 6.04257 19.7683 5.8602 19.771 5.67541C19.7737 5.49062 19.7393 5.30718 19.6698 5.13593C19.6003 4.96468 19.4972 4.80911 19.3665 4.67843C19.2359 4.54775 19.0803 4.44462 18.909 4.37514C18.7378 4.30567 18.5543 4.27126 18.3695 4.27395C18.1848 4.27664 18.0024 4.31639 17.8332 4.39083C17.6641 4.46526 17.5116 4.57289 17.3848 4.70732C17.1381 4.96876 17.0031 5.31603 17.0084 5.67541C17.0136 6.03479 17.1587 6.37798 17.4128 6.63212C17.667 6.88627 18.0102 7.03136 18.3695 7.0366C18.7289 7.04184 19.0762 6.90681 19.3376 6.66018Z" fill="#F9F9F9"/>
</svg>
