<svg width="6" height="7" viewBox="0 0 6 7" fill="none" xmlns="http://www.w3.org/2000/svg">
<path d="M0.367536 0.172349C0.474327 0.124762 0.594218 0.103592 0.714016 0.111168C0.833814 0.118744 0.948875 0.154772 1.04654 0.215288L5.61674 3.04022C5.70137 3.09248 5.77036 3.16148 5.81796 3.24147C5.86555 3.32147 5.89038 3.41014 5.89038 3.50011C5.89038 3.59009 5.86555 3.67876 5.81796 3.75876C5.77036 3.83875 5.70137 3.90775 5.61674 3.96001L1.04654 6.78494C0.948909 6.84541 0.833905 6.88141 0.714168 6.88898C0.594432 6.89656 0.474599 6.87542 0.367846 6.82788C0.261092 6.78035 0.171551 6.70827 0.109067 6.61955C0.0465827 6.53084 0.0135748 6.42894 0.0136722 6.32504V0.675187C0.0135465 0.571323 0.0465085 0.469438 0.108936 0.380729C0.171364 0.29202 0.260841 0.219919 0.367536 0.172349Z" fill="#DCDCDC"/>
</svg>
