<svg width="29" height="26" viewBox="0 0 29 26" fill="none" xmlns="http://www.w3.org/2000/svg">
<path d="M7.82422 14.75C7.82422 15.2141 8.00859 15.6592 8.33678 15.9874C8.66497 16.3156 9.11009 16.5 9.57422 16.5C10.0383 16.5 10.4835 16.3156 10.8117 15.9874C11.1398 15.6592 11.3242 15.2141 11.3242 14.75C11.3242 14.2859 11.1398 13.8408 10.8117 13.5126C10.4835 13.1844 10.0383 13 9.57422 13C9.11009 13 8.66497 13.1844 8.33678 13.5126C8.00859 13.8408 7.82422 14.2859 7.82422 14.75ZM18.4086 18.4906C17.6867 19.0594 16.2555 19.6719 14.8242 19.6719C13.393 19.6719 11.9617 19.0594 11.2398 18.4906C10.7898 18.1375 10.1367 18.2125 9.78047 18.6625C9.42422 19.1125 9.50234 19.7656 9.95234 20.1219C11.2086 21.1125 13.1211 21.75 14.8242 21.75C16.5273 21.75 18.4398 21.1125 19.6961 20.1219C19.9124 19.9511 20.052 19.7015 20.0843 19.4278C20.1165 19.1541 20.0387 18.8788 19.868 18.6625C19.6972 18.4462 19.4476 18.3065 19.1739 18.2743C18.9002 18.2421 18.6249 18.3199 18.4086 18.4906ZM28.8242 11.25C28.8242 9.31563 27.2586 7.75 25.3242 7.75C24.0086 7.75 22.8648 8.475 22.2648 9.55C20.4648 8.56563 18.2742 7.93125 15.8867 7.78438L17.9773 3.09375L21.9742 4.24687C22.3336 5.26562 23.3055 6 24.4492 6C25.8992 6 27.0742 4.825 27.0742 3.375C27.0742 1.925 25.8992 0.75 24.4492 0.75C23.4492 0.75 22.5805 1.30937 22.1367 2.13125L17.6836 0.84375C17.4427 0.773768 17.1845 0.793459 16.957 0.899178C16.7295 1.0049 16.548 1.18948 16.4461 1.41875L13.6086 7.79062C11.2805 7.95312 9.14297 8.58437 7.38359 9.54688C7.0802 9.00177 6.63655 8.54773 6.09862 8.23178C5.5607 7.91584 4.94806 7.7495 4.32422 7.75C2.38984 7.75 0.824219 9.31563 0.824219 11.25C0.824219 12.6812 1.68359 13.9094 2.91172 14.4531C2.68984 15.1094 2.57422 15.7969 2.57422 16.5C2.57422 21.3312 8.05859 25.25 14.8242 25.25C21.5898 25.25 27.0742 21.3312 27.0742 16.5C27.0742 15.7937 26.9555 15.1094 26.7367 14.4531C27.9648 13.9094 28.8242 12.6812 28.8242 11.25ZM24.4492 2.39062C24.5785 2.39062 24.7065 2.41609 24.8259 2.46556C24.9454 2.51503 25.0539 2.58753 25.1453 2.67894C25.2367 2.77035 25.3092 2.87887 25.3587 2.9983C25.4081 3.11773 25.4336 3.24573 25.4336 3.375C25.4336 3.50427 25.4081 3.63227 25.3587 3.7517C25.3092 3.87113 25.2367 3.97965 25.1453 4.07106C25.0539 4.16247 24.9454 4.23497 24.8259 4.28444C24.7065 4.33391 24.5785 4.35938 24.4492 4.35938C24.1881 4.35938 23.9378 4.25566 23.7532 4.07106C23.5686 3.88645 23.4648 3.63607 23.4648 3.375C23.4648 3.11393 23.5686 2.86355 23.7532 2.67894C23.9378 2.49434 24.1881 2.39062 24.4492 2.39062ZM2.57422 11.25C2.57422 10.2844 3.35859 9.5 4.32422 9.5C4.65574 9.50026 4.98036 9.59468 5.2603 9.77227C5.54024 9.94986 5.76398 10.2033 5.90547 10.5031C4.98984 11.1969 4.23359 11.9969 3.67109 12.875C3.34749 12.7438 3.07032 12.5191 2.87496 12.2297C2.6796 11.9403 2.5749 11.5992 2.57422 11.25ZM14.8242 23.1719C9.20547 23.1719 4.65234 20.1844 4.65234 16.5C4.65234 12.8156 9.20547 9.82812 14.8242 9.82812C20.443 9.82812 24.9961 12.8156 24.9961 16.5C24.9961 20.1844 20.443 23.1719 14.8242 23.1719ZM25.9742 12.875C25.4148 11.9969 24.6555 11.1969 23.7398 10.5031C24.0211 9.9125 24.6242 9.5 25.3211 9.5C26.2867 9.5 27.0711 10.2844 27.0711 11.25C27.0742 11.9844 26.618 12.6156 25.9742 12.875ZM18.3242 14.75C18.3242 15.2141 18.5086 15.6592 18.8368 15.9874C19.165 16.3156 19.6101 16.5 20.0742 16.5C20.5383 16.5 20.9835 16.3156 21.3117 15.9874C21.6398 15.6592 21.8242 15.2141 21.8242 14.75C21.8242 14.2859 21.6398 13.8408 21.3117 13.5126C20.9835 13.1844 20.5383 13 20.0742 13C19.6101 13 19.165 13.1844 18.8368 13.5126C18.5086 13.8408 18.3242 14.2859 18.3242 14.75Z" fill="#F9F9F9"/>
</svg>
