<svg width="40" height="38" viewBox="0 0 40 38" fill="none" xmlns="http://www.w3.org/2000/svg">
<g filter="url(#filter0_d_2601_1778)">
<path d="M37.7186 14.7141C37.6065 14.3955 37.4025 14.1156 37.1315 13.9084C36.8605 13.7012 36.5341 13.5756 36.1918 13.5469L26.09 12.1009L21.5628 3.09408C21.4174 2.79954 21.1904 2.55113 20.9078 2.37732C20.6252 2.20351 20.2985 2.11133 19.965 2.11133C19.6314 2.11133 19.3047 2.20351 19.0221 2.37732C18.7395 2.55113 18.5125 2.79954 18.3671 3.09408L13.84 12.0835L3.73816 13.5469C3.40958 13.5927 3.10067 13.728 2.84648 13.9374C2.5923 14.1468 2.40301 14.4219 2.30011 14.7315C2.20592 15.0341 2.19747 15.3561 2.27566 15.663C2.35386 15.97 2.51575 16.2502 2.74396 16.4737L10.0762 23.4422L8.30084 33.3375C8.22916 33.6658 8.25566 34.0074 8.37715 34.3212C8.49864 34.635 8.70995 34.9077 8.98565 35.1065C9.26135 35.3052 9.5897 35.4216 9.9312 35.4416C10.2727 35.4615 10.6128 35.3843 10.9106 35.219L19.965 30.5675L29.0193 35.219C29.2685 35.357 29.5499 35.429 29.836 35.4281C30.212 35.4294 30.5788 35.3135 30.8834 35.0971C31.1589 34.9035 31.3721 34.6365 31.4979 34.3278C31.6238 34.0191 31.657 33.6816 31.5936 33.3549L29.8182 23.4596L37.1505 16.4911C37.4068 16.278 37.5962 15.9979 37.6968 15.6833C37.7974 15.3688 37.8049 15.0327 37.7186 14.7141ZM26.8001 21.6827C26.5946 21.8785 26.4405 22.1202 26.3508 22.3871C26.2612 22.6541 26.2387 22.9384 26.2852 23.2157L27.5635 30.5327L20.8881 27.0484C20.6287 26.9225 20.3432 26.857 20.0537 26.857C19.7643 26.857 19.4787 26.9225 19.2193 27.0484L12.544 30.5327L13.8222 23.2157C13.8688 22.9384 13.8463 22.6541 13.7566 22.3871C13.667 22.1202 13.5128 21.8785 13.3074 21.6827L7.98127 16.4562L15.4555 15.3935C15.7431 15.3543 16.0166 15.2464 16.2518 15.0794C16.487 14.9123 16.6769 14.6912 16.8048 14.4354L19.965 7.79784L23.3026 14.4528C23.4305 14.7086 23.6204 14.9297 23.8557 15.0968C24.0909 15.2638 24.3643 15.3717 24.6519 15.411L32.1262 16.4737L26.8001 21.6827Z" fill="#7E2DF9"/>
<path d="M37.7186 14.7141C37.6065 14.3955 37.4025 14.1156 37.1315 13.9084C36.8605 13.7012 36.5341 13.5756 36.1918 13.5469L26.09 12.1009L21.5628 3.09408C21.4174 2.79954 21.1904 2.55113 20.9078 2.37732C20.6252 2.20351 20.2985 2.11133 19.965 2.11133C19.6314 2.11133 19.3047 2.20351 19.0221 2.37732C18.7395 2.55113 18.5125 2.79954 18.3671 3.09408L13.84 12.0835L3.73816 13.5469C3.40958 13.5927 3.10067 13.728 2.84648 13.9374C2.5923 14.1468 2.40301 14.4219 2.30011 14.7315C2.20592 15.0341 2.19747 15.3561 2.27566 15.663C2.35386 15.97 2.51575 16.2502 2.74396 16.4737L10.0762 23.4422L8.30084 33.3375C8.22916 33.6658 8.25566 34.0074 8.37715 34.3212C8.49864 34.635 8.70995 34.9077 8.98565 35.1065C9.26135 35.3052 9.5897 35.4216 9.9312 35.4416C10.2727 35.4615 10.6128 35.3843 10.9106 35.219L19.965 30.5675L29.0193 35.219C29.2685 35.357 29.5499 35.429 29.836 35.4281C30.212 35.4294 30.5788 35.3135 30.8834 35.0971C31.1589 34.9035 31.3721 34.6365 31.4979 34.3278C31.6238 34.0191 31.657 33.6816 31.5936 33.3549L29.8182 23.4596L37.1505 16.4911C37.4068 16.278 37.5962 15.9979 37.6968 15.6833C37.7974 15.3688 37.8049 15.0327 37.7186 14.7141ZM26.8001 21.6827C26.5946 21.8785 26.4405 22.1202 26.3508 22.3871C26.2612 22.6541 26.2387 22.9384 26.2852 23.2157L27.5635 30.5327L20.8881 27.0484C20.6287 26.9225 20.3432 26.857 20.0537 26.857C19.7643 26.857 19.4787 26.9225 19.2193 27.0484L12.544 30.5327L13.8222 23.2157C13.8688 22.9384 13.8463 22.6541 13.7566 22.3871C13.667 22.1202 13.5128 21.8785 13.3074 21.6827L7.98127 16.4562L15.4555 15.3935C15.7431 15.3543 16.0166 15.2464 16.2518 15.0794C16.487 14.9123 16.6769 14.6912 16.8048 14.4354L19.965 7.79784L23.3026 14.4528C23.4305 14.7086 23.6204 14.9297 23.8557 15.0968C24.0909 15.2638 24.3643 15.3717 24.6519 15.411L32.1262 16.4737L26.8001 21.6827Z" fill="url(#paint0_linear_2601_1778)" fill-opacity="0.2"/>
</g>
<defs>
<filter id="filter0_d_2601_1778" x="0.161996" y="0.050668" width="39.677" height="37.4548" filterUnits="userSpaceOnUse" color-interpolation-filters="sRGB">
<feFlood flood-opacity="0" result="BackgroundImageFix"/>
<feColorMatrix in="SourceAlpha" type="matrix" values="0 0 0 0 0 0 0 0 0 0 0 0 0 0 0 0 0 0 127 0" result="hardAlpha"/>
<feOffset/>
<feGaussianBlur stdDeviation="1.03033"/>
<feComposite in2="hardAlpha" operator="out"/>
<feColorMatrix type="matrix" values="0 0 0 0 0.403922 0 0 0 0 0.00392157 0 0 0 0 0.882353 0 0 0 1 0"/>
<feBlend mode="normal" in2="BackgroundImageFix" result="effect1_dropShadow_2601_1778"/>
<feBlend mode="normal" in="SourceGraphic" in2="effect1_dropShadow_2601_1778" result="shape"/>
</filter>
<linearGradient id="paint0_linear_2601_1778" x1="20.0004" y1="7.01329" x2="20.0004" y2="35.4447" gradientUnits="userSpaceOnUse">
<stop stop-color="white"/>
<stop offset="1" stop-opacity="0"/>
</linearGradient>
</defs>
</svg>
