<svg width="40" height="36" viewBox="0 0 40 36" fill="none" xmlns="http://www.w3.org/2000/svg">
<g filter="url(#filter0_d_2601_1807)">
<path d="M37.7186 14.3425C37.6065 14.0557 37.4025 13.8038 37.1315 13.6173C36.8605 13.4309 36.5341 13.3179 36.1918 13.292L26.09 11.9906L21.5628 3.88448C21.4174 3.61939 21.1904 3.39582 20.9078 3.2394C20.6252 3.08297 20.2985 3 19.965 3C19.6314 3 19.3047 3.08297 19.0221 3.2394C18.7395 3.39582 18.5125 3.61939 18.3671 3.88448L13.84 11.9749L3.73816 13.292C3.40958 13.3332 3.10067 13.455 2.84648 13.6435C2.5923 13.8319 2.40301 14.0795 2.30011 14.3582C2.20592 14.6305 2.19747 14.9203 2.27566 15.1965C2.35386 15.4728 2.51575 15.725 2.74396 15.9261L10.0762 22.1978L8.30084 31.1036C8.22916 31.399 8.25566 31.7064 8.37715 31.9889C8.49864 32.2713 8.70995 32.5168 8.98565 32.6956C9.26135 32.8745 9.5897 32.9793 9.9312 32.9972C10.2727 33.0152 10.6128 32.9456 10.9106 32.7969L19.965 28.6106L29.0193 32.7969C29.2685 32.9211 29.5499 32.9859 29.836 32.9851C30.212 32.9863 30.5788 32.882 30.8834 32.6872C31.1589 32.5129 31.3721 32.2727 31.4979 31.9949C31.6238 31.717 31.657 31.4132 31.5936 31.1193L29.8182 22.2135L37.1505 15.9418C37.4068 15.75 37.5962 15.4979 37.6968 15.2148C37.7974 14.9317 37.8049 14.6292 37.7186 14.3425ZM26.8001 20.6142C26.5946 20.7904 26.4405 21.008 26.3508 21.2482C26.2612 21.4885 26.2387 21.7444 26.2852 21.994L27.5635 28.5792L20.8881 25.4434C20.6287 25.33 20.3432 25.2711 20.0537 25.2711C19.7643 25.2711 19.4787 25.33 19.2193 25.4434L12.544 28.5792L13.8222 21.994C13.8688 21.7444 13.8463 21.4885 13.7566 21.2482C13.667 21.008 13.5128 20.7904 13.3074 20.6142L7.98127 15.9104L15.4555 14.954C15.7431 14.9187 16.0166 14.8216 16.2518 14.6712C16.487 14.5209 16.6769 14.3219 16.8048 14.0916L19.965 8.11786L23.3026 14.1073C23.4305 14.3376 23.6204 14.5366 23.8557 14.6869C24.0909 14.8373 24.3643 14.9343 24.6519 14.9697L32.1262 15.9261L26.8001 20.6142Z" fill="#7E2DF9"/>
<path d="M37.7186 14.3425C37.6065 14.0557 37.4025 13.8038 37.1315 13.6173C36.8605 13.4309 36.5341 13.3179 36.1918 13.292L26.09 11.9906L21.5628 3.88448C21.4174 3.61939 21.1904 3.39582 20.9078 3.2394C20.6252 3.08297 20.2985 3 19.965 3C19.6314 3 19.3047 3.08297 19.0221 3.2394C18.7395 3.39582 18.5125 3.61939 18.3671 3.88448L13.84 11.9749L3.73816 13.292C3.40958 13.3332 3.10067 13.455 2.84648 13.6435C2.5923 13.8319 2.40301 14.0795 2.30011 14.3582C2.20592 14.6305 2.19747 14.9203 2.27566 15.1965C2.35386 15.4728 2.51575 15.725 2.74396 15.9261L10.0762 22.1978L8.30084 31.1036C8.22916 31.399 8.25566 31.7064 8.37715 31.9889C8.49864 32.2713 8.70995 32.5168 8.98565 32.6956C9.26135 32.8745 9.5897 32.9793 9.9312 32.9972C10.2727 33.0152 10.6128 32.9456 10.9106 32.7969L19.965 28.6106L29.0193 32.7969C29.2685 32.9211 29.5499 32.9859 29.836 32.9851C30.212 32.9863 30.5788 32.882 30.8834 32.6872C31.1589 32.5129 31.3721 32.2727 31.4979 31.9949C31.6238 31.717 31.657 31.4132 31.5936 31.1193L29.8182 22.2135L37.1505 15.9418C37.4068 15.75 37.5962 15.4979 37.6968 15.2148C37.7974 14.9317 37.8049 14.6292 37.7186 14.3425ZM26.8001 20.6142C26.5946 20.7904 26.4405 21.008 26.3508 21.2482C26.2612 21.4885 26.2387 21.7444 26.2852 21.994L27.5635 28.5792L20.8881 25.4434C20.6287 25.33 20.3432 25.2711 20.0537 25.2711C19.7643 25.2711 19.4787 25.33 19.2193 25.4434L12.544 28.5792L13.8222 21.994C13.8688 21.7444 13.8463 21.4885 13.7566 21.2482C13.667 21.008 13.5128 20.7904 13.3074 20.6142L7.98127 15.9104L15.4555 14.954C15.7431 14.9187 16.0166 14.8216 16.2518 14.6712C16.487 14.5209 16.6769 14.3219 16.8048 14.0916L19.965 8.11786L23.3026 14.1073C23.4305 14.3376 23.6204 14.5366 23.8557 14.6869C24.0909 14.8373 24.3643 14.9343 24.6519 14.9697L32.1262 15.9261L26.8001 20.6142Z" fill="url(#paint0_linear_2601_1807)" fill-opacity="0.2"/>
</g>
<defs>
<filter id="filter0_d_2601_1807" x="0.161996" y="0.93934" width="39.677" height="34.1213" filterUnits="userSpaceOnUse" color-interpolation-filters="sRGB">
<feFlood flood-opacity="0" result="BackgroundImageFix"/>
<feColorMatrix in="SourceAlpha" type="matrix" values="0 0 0 0 0 0 0 0 0 0 0 0 0 0 0 0 0 0 127 0" result="hardAlpha"/>
<feOffset/>
<feGaussianBlur stdDeviation="1.03033"/>
<feComposite in2="hardAlpha" operator="out"/>
<feColorMatrix type="matrix" values="0 0 0 0 0.403922 0 0 0 0 0.00392157 0 0 0 0 0.882353 0 0 0 1 0"/>
<feBlend mode="normal" in2="BackgroundImageFix" result="effect1_dropShadow_2601_1807"/>
<feBlend mode="normal" in="SourceGraphic" in2="effect1_dropShadow_2601_1807" result="shape"/>
</filter>
<linearGradient id="paint0_linear_2601_1807" x1="20.0004" y1="7.41176" x2="20.0004" y2="33" gradientUnits="userSpaceOnUse">
<stop stop-color="white"/>
<stop offset="1" stop-opacity="0"/>
</linearGradient>
</defs>
</svg>
