<svg width="17" height="20" viewBox="0 0 17 20" fill="none" xmlns="http://www.w3.org/2000/svg">
<path d="M15.6567 5.25835C14.7389 5.05651 13.9085 4.56909 13.2849 3.86605C12.6612 3.163 12.2763 2.28046 12.1854 1.34508V0.939941H9.00876V13.5269C9.0094 14.0854 8.8343 14.6299 8.50827 15.0834C8.18223 15.5368 7.72178 15.8762 7.19214 16.0534C6.6625 16.2307 6.09052 16.2367 5.55723 16.0708C5.02394 15.9049 4.55638 15.5754 4.22076 15.129C3.92008 14.7338 3.73596 14.2624 3.68923 13.7681C3.64249 13.2738 3.735 12.7762 3.95629 12.3317C4.17759 11.8872 4.51884 11.5135 4.94146 11.2528C5.36407 10.9921 5.85119 10.8549 6.34774 10.8566C6.62235 10.8551 6.89559 10.8954 7.15801 10.9763V7.75363C6.85263 7.71581 6.54488 7.70043 6.23724 7.7076C5.10406 7.73787 4.0043 8.09794 3.07264 8.74371C2.14097 9.38947 1.41784 10.2929 0.991784 11.3434C0.565732 12.3939 0.455254 13.5458 0.67388 14.6581C0.892506 15.7704 1.43075 16.7948 2.22269 17.6059C3.03434 18.4311 4.07297 18.9964 5.20662 19.2299C6.34027 19.4635 7.51777 19.3548 8.58949 18.9176C9.66122 18.4804 10.5788 17.7345 11.2256 16.7746C11.8725 15.8148 12.2194 14.6843 12.2222 13.5269V7.08147C13.5035 7.99667 15.0398 8.48624 16.6143 8.48104V5.35043C16.305 5.3517 15.9964 5.32084 15.6935 5.25835H15.6567Z" fill="#F9F9F9"/>
</svg>
