<svg width="31" height="30" viewBox="0 0 31 30" fill="none" xmlns="http://www.w3.org/2000/svg">
<g filter="url(#filter0_d_2601_1814)">
<path d="M27.0417 4.58333H23.1667V3.29167C23.1667 2.9491 23.0306 2.62055 22.7883 2.37832C22.5461 2.13609 22.2176 2 21.875 2H8.95833C8.61576 2 8.28722 2.13609 8.04499 2.37832C7.80275 2.62055 7.66667 2.9491 7.66667 3.29167V4.58333H3.79167C3.4491 4.58333 3.12055 4.71942 2.87832 4.96165C2.63609 5.20389 2.5 5.53243 2.5 5.875V9.75C2.5 11.1203 3.04434 12.4344 4.01328 13.4034C4.98222 14.3723 6.29638 14.9167 7.66667 14.9167H9.65583C10.8242 16.2201 12.3994 17.0897 14.125 17.3838V20.0833H12.8333C11.8056 20.0833 10.82 20.4916 10.0933 21.2183C9.36659 21.945 8.95833 22.9306 8.95833 23.9583V26.5417C8.95833 26.8842 9.09442 27.2128 9.33665 27.455C9.57889 27.6972 9.90743 27.8333 10.25 27.8333H20.5833C20.9259 27.8333 21.2544 27.6972 21.4967 27.455C21.7389 27.2128 21.875 26.8842 21.875 26.5417V23.9583C21.875 22.9306 21.4667 21.945 20.74 21.2183C20.0133 20.4916 19.0277 20.0833 18 20.0833H16.7083V17.3838C18.4339 17.0897 20.0091 16.2201 21.1775 14.9167H23.1667C24.537 14.9167 25.8511 14.3723 26.8201 13.4034C27.789 12.4344 28.3333 11.1203 28.3333 9.75V5.875C28.3333 5.53243 28.1972 5.20389 27.955 4.96165C27.7128 4.71942 27.3842 4.58333 27.0417 4.58333V4.58333ZM7.66667 12.3333C6.98152 12.3333 6.32444 12.0612 5.83997 11.5767C5.35551 11.0922 5.08333 10.4351 5.08333 9.75V7.16667H7.66667V9.75C7.66951 10.6305 7.82239 11.5042 8.11875 12.3333H7.66667ZM18 22.6667C18.3426 22.6667 18.6711 22.8028 18.9133 23.045C19.1556 23.2872 19.2917 23.6158 19.2917 23.9583V25.25H11.5417V23.9583C11.5417 23.6158 11.6778 23.2872 11.92 23.045C12.1622 22.8028 12.4908 22.6667 12.8333 22.6667H18ZM20.5833 9.75C20.5833 11.1203 20.039 12.4344 19.0701 13.4034C18.1011 14.3723 16.787 14.9167 15.4167 14.9167C14.0464 14.9167 12.7322 14.3723 11.7633 13.4034C10.7943 12.4344 10.25 11.1203 10.25 9.75V4.58333H20.5833V9.75ZM25.75 9.75C25.75 10.4351 25.4778 11.0922 24.9934 11.5767C24.5089 12.0612 23.8518 12.3333 23.1667 12.3333H22.7146C23.0109 11.5042 23.1638 10.6305 23.1667 9.75V7.16667H25.75V9.75Z" fill="#7E2DF9"/>
<path d="M27.0417 4.58333H23.1667V3.29167C23.1667 2.9491 23.0306 2.62055 22.7883 2.37832C22.5461 2.13609 22.2176 2 21.875 2H8.95833C8.61576 2 8.28722 2.13609 8.04499 2.37832C7.80275 2.62055 7.66667 2.9491 7.66667 3.29167V4.58333H3.79167C3.4491 4.58333 3.12055 4.71942 2.87832 4.96165C2.63609 5.20389 2.5 5.53243 2.5 5.875V9.75C2.5 11.1203 3.04434 12.4344 4.01328 13.4034C4.98222 14.3723 6.29638 14.9167 7.66667 14.9167H9.65583C10.8242 16.2201 12.3994 17.0897 14.125 17.3838V20.0833H12.8333C11.8056 20.0833 10.82 20.4916 10.0933 21.2183C9.36659 21.945 8.95833 22.9306 8.95833 23.9583V26.5417C8.95833 26.8842 9.09442 27.2128 9.33665 27.455C9.57889 27.6972 9.90743 27.8333 10.25 27.8333H20.5833C20.9259 27.8333 21.2544 27.6972 21.4967 27.455C21.7389 27.2128 21.875 26.8842 21.875 26.5417V23.9583C21.875 22.9306 21.4667 21.945 20.74 21.2183C20.0133 20.4916 19.0277 20.0833 18 20.0833H16.7083V17.3838C18.4339 17.0897 20.0091 16.2201 21.1775 14.9167H23.1667C24.537 14.9167 25.8511 14.3723 26.8201 13.4034C27.789 12.4344 28.3333 11.1203 28.3333 9.75V5.875C28.3333 5.53243 28.1972 5.20389 27.955 4.96165C27.7128 4.71942 27.3842 4.58333 27.0417 4.58333V4.58333ZM7.66667 12.3333C6.98152 12.3333 6.32444 12.0612 5.83997 11.5767C5.35551 11.0922 5.08333 10.4351 5.08333 9.75V7.16667H7.66667V9.75C7.66951 10.6305 7.82239 11.5042 8.11875 12.3333H7.66667ZM18 22.6667C18.3426 22.6667 18.6711 22.8028 18.9133 23.045C19.1556 23.2872 19.2917 23.6158 19.2917 23.9583V25.25H11.5417V23.9583C11.5417 23.6158 11.6778 23.2872 11.92 23.045C12.1622 22.8028 12.4908 22.6667 12.8333 22.6667H18ZM20.5833 9.75C20.5833 11.1203 20.039 12.4344 19.0701 13.4034C18.1011 14.3723 16.787 14.9167 15.4167 14.9167C14.0464 14.9167 12.7322 14.3723 11.7633 13.4034C10.7943 12.4344 10.25 11.1203 10.25 9.75V4.58333H20.5833V9.75ZM25.75 9.75C25.75 10.4351 25.4778 11.0922 24.9934 11.5767C24.5089 12.0612 23.8518 12.3333 23.1667 12.3333H22.7146C23.0109 11.5042 23.1638 10.6305 23.1667 9.75V7.16667H25.75V9.75Z" fill="url(#paint0_linear_2601_1814)" fill-opacity="0.2"/>
</g>
<defs>
<filter id="filter0_d_2601_1814" x="0.759887" y="0.259887" width="29.3132" height="29.3137" filterUnits="userSpaceOnUse" color-interpolation-filters="sRGB">
<feFlood flood-opacity="0" result="BackgroundImageFix"/>
<feColorMatrix in="SourceAlpha" type="matrix" values="0 0 0 0 0 0 0 0 0 0 0 0 0 0 0 0 0 0 127 0" result="hardAlpha"/>
<feOffset/>
<feGaussianBlur stdDeviation="0.870057"/>
<feComposite in2="hardAlpha" operator="out"/>
<feColorMatrix type="matrix" values="0 0 0 0 0.403922 0 0 0 0 0.00392157 0 0 0 0 0.882353 0 0 0 1 0"/>
<feBlend mode="normal" in2="BackgroundImageFix" result="effect1_dropShadow_2601_1814"/>
<feBlend mode="normal" in="SourceGraphic" in2="effect1_dropShadow_2601_1814" result="shape"/>
</filter>
<linearGradient id="paint0_linear_2601_1814" x1="10.8958" y1="5.22917" x2="15.4167" y2="27.8333" gradientUnits="userSpaceOnUse">
<stop stop-color="white"/>
<stop offset="1" stop-opacity="0"/>
</linearGradient>
</defs>
</svg>
