<svg width="29" height="24" viewBox="0 0 29 24" fill="none" xmlns="http://www.w3.org/2000/svg">
<path d="M28.4541 3.54322C27.4223 4.00042 26.3139 4.30934 25.1486 4.44898C26.3509 3.72955 27.2505 2.59725 27.6793 1.26336C26.5497 1.93433 25.3134 2.40662 24.0241 2.6597C23.1572 1.734 22.0088 1.12043 20.7574 0.91425C19.5059 0.708072 18.2215 0.920821 17.1033 1.51947C15.9852 2.11811 15.096 3.06916 14.5738 4.22495C14.0515 5.38074 13.9255 6.67662 14.2152 7.91138C11.9263 7.79646 9.68719 7.20154 7.6431 6.16524C5.59902 5.12893 3.79568 3.6744 2.35011 1.89604C1.85584 2.74867 1.57163 3.73722 1.57163 4.79003C1.57108 5.7378 1.80447 6.67105 2.25111 7.50698C2.69774 8.34292 3.34381 9.05568 4.13198 9.58204C3.21791 9.55295 2.32401 9.30597 1.52467 8.86163V8.93577C1.52458 10.2651 1.98439 11.5534 2.82608 12.5823C3.66777 13.6112 4.8395 14.3171 6.14245 14.5804C5.2945 14.8099 4.40548 14.8437 3.54255 14.6793C3.91017 15.823 4.62625 16.8232 5.59055 17.5398C6.55485 18.2564 7.71909 18.6535 8.92028 18.6755C6.88119 20.2762 4.36291 21.1445 1.77057 21.1407C1.31137 21.1408 0.852549 21.114 0.396484 21.0604C3.02786 22.7523 6.09097 23.6502 9.21932 23.6467C19.8092 23.6467 25.5984 14.8757 25.5984 7.26883C25.5984 7.02169 25.5922 6.77208 25.5811 6.52494C26.7072 5.71059 27.6792 4.70217 28.4516 3.54692L28.4541 3.54322Z" fill="#F9F9F9"/>
</svg>
