<svg width="29" height="24" viewBox="0 0 29 24" fill="none" xmlns="http://www.w3.org/2000/svg">
<path d="M12.2087 21.7116C7.56948 22.1674 3.55936 20.0709 3.25836 17.0224C2.95736 13.9783 6.47573 11.1346 11.1194 10.6743C15.763 10.2141 19.7687 12.3106 20.0697 15.3591C20.3751 18.3944 16.8524 21.2513 12.2131 21.7072L12.2087 21.7116ZM10.9872 18.0882C10.5357 18.8083 9.57936 19.1181 8.85398 18.7899C8.13823 18.4662 7.92911 17.6323 8.37973 16.9306C8.82161 16.2376 9.75173 15.9278 10.4719 16.2332C11.1964 16.5386 11.4291 17.3637 10.9872 18.0882ZM12.4677 16.1929C12.3032 16.4668 11.9436 16.6033 11.6654 16.4843C11.3871 16.3793 11.2961 16.0652 11.4554 15.8009C11.6199 15.5367 11.9655 15.4002 12.2394 15.5227C12.5176 15.6277 12.6086 15.9418 12.4494 16.2244L12.4677 16.1929ZM12.6734 13.0158C10.4631 12.4418 7.97023 13.5443 7.00861 15.4903C6.03298 17.4774 6.97711 19.6781 9.20486 20.3982C11.5201 21.1454 14.2449 20.0018 15.1934 17.8598C16.1279 15.7677 14.9606 13.6082 12.6734 13.0158ZM21.496 11.5896C21.0952 11.4662 20.831 11.3796 21.0217 10.8738C21.4592 9.73457 21.5144 8.76857 21.0217 8.06682C20.11 6.77269 17.6224 6.84094 14.7646 8.03532C14.7646 8.03532 13.8712 8.41857 14.0996 7.71594C14.5371 6.29844 14.4689 5.12244 13.7855 4.43907C12.2227 2.88069 8.10236 4.49419 4.58398 8.03444C1.95461 10.6822 0.427734 13.4848 0.427734 15.9051C0.427734 20.5487 6.37511 23.3653 12.1947 23.3653C19.8195 23.3653 24.8962 18.9308 24.8962 15.4081C24.8962 13.2844 23.0911 12.0813 21.4969 11.5799L21.496 11.5896ZM23.7246 5.65182C23.2989 5.17668 22.7552 4.8224 22.1486 4.62481C21.542 4.42722 20.894 4.39333 20.2701 4.52657C20.151 4.55024 20.0378 4.5973 19.937 4.66501C19.8362 4.73272 19.7498 4.81974 19.6828 4.92104C19.6158 5.02235 19.5696 5.13592 19.5468 5.2552C19.524 5.37447 19.5251 5.49708 19.55 5.61594C19.655 6.10332 20.1467 6.42269 20.6394 6.31769C21.2361 6.19432 21.8836 6.36757 22.3211 6.86019C22.7586 7.35282 22.8636 7.99944 22.6904 8.57869C22.6531 8.6936 22.6389 8.81471 22.6486 8.93511C22.6582 9.0555 22.6915 9.17281 22.7465 9.28034C22.8015 9.38786 22.8772 9.48347 22.9692 9.56172C23.0612 9.63996 23.1678 9.69929 23.2827 9.73632C23.757 9.87719 24.2855 9.61294 24.4404 9.13957C24.6366 8.53525 24.6705 7.88994 24.5386 7.26839C24.4067 6.64684 24.1136 6.07092 23.6887 5.59844L23.7246 5.65182ZM26.5456 3.09069C24.7046 1.03969 21.9886 0.265318 19.4817 0.793818C18.9034 0.911943 18.5341 1.47719 18.6566 2.05644C18.7791 2.63569 19.34 3.00407 19.9192 2.88157C20.8229 2.68475 21.7625 2.73033 22.6428 3.01368C23.5232 3.29704 24.3129 3.8081 24.9321 4.49507C26.2262 5.94844 26.5999 7.92682 26.0346 9.64444C25.9896 9.77785 25.9717 9.91888 25.9818 10.0593C25.9919 10.1997 26.0299 10.3367 26.0935 10.4623C26.1571 10.5879 26.2451 10.6996 26.3523 10.7908C26.4595 10.882 26.5838 10.951 26.718 10.9937C27.2789 11.1897 27.8756 10.8756 28.0672 10.3103C28.4673 9.06761 28.5339 7.74161 28.2604 6.46506C27.9869 5.18851 27.3829 4.00619 26.5089 3.03644L26.5456 3.09069Z" fill="#F9F9F9"/>
</svg>
