<svg width="25" height="17" viewBox="0 0 25 17" fill="none" xmlns="http://www.w3.org/2000/svg">
<path d="M24.4034 2.9566C24.263 2.4557 23.9895 2.00222 23.6119 1.64435C23.2237 1.27548 22.7479 1.01162 22.2294 0.877672C20.2889 0.366208 12.5147 0.366208 12.5147 0.366208C9.27368 0.329333 6.03347 0.491516 2.81235 0.851841C2.29385 0.995685 1.81893 1.26544 1.42984 1.63712C1.04753 2.00496 0.77062 2.45856 0.625963 2.95556C0.27847 4.82757 0.109634 6.72836 0.121731 8.63231C0.109332 10.5345 0.277754 12.4347 0.625963 14.309C0.76752 14.804 1.0434 15.2555 1.42674 15.6203C1.81008 15.985 2.28745 16.2485 2.81235 16.388C4.77864 16.8984 12.5147 16.8984 12.5147 16.8984C15.7598 16.9353 19.0041 16.7731 22.2294 16.4128C22.7479 16.2788 23.2237 16.015 23.6119 15.6461C23.9942 15.2813 24.266 14.8277 24.4024 14.3338C24.7589 12.4626 24.9323 10.561 24.92 8.65607C24.9468 6.74309 24.7737 4.83255 24.4034 2.95556V2.9566ZM10.0431 12.1702V5.09545L16.5113 8.63334L10.0431 12.1702Z" fill="#F9F9F9"/>
</svg>
