<svg width="14" height="11" viewBox="0 0 14 11" fill="none" xmlns="http://www.w3.org/2000/svg">
<path d="M11.8515 0.912299C10.959 0.49066 10.0024 0.179013 9.00202 0.00180276C8.99311 1.10493e-05 8.98389 0.00116569 8.97563 0.00510703C8.96738 0.00904836 8.96049 0.0155814 8.95594 0.0238013C8.83344 0.249287 8.69695 0.543212 8.60128 0.775419C7.54028 0.609352 6.46162 0.609352 5.40062 0.775419C5.29407 0.518073 5.17392 0.267145 5.04072 0.0238013C5.0362 0.0154802 5.02937 0.00879938 5.02114 0.00465043C5.01291 0.000501484 5.00366 -0.000918326 4.99464 0.000580562C3.99483 0.177791 3.03819 0.489437 2.14513 0.911688C2.13745 0.915063 2.13094 0.920821 2.12647 0.928186C0.311188 3.72384 -0.186381 6.45044 0.0580287 9.14281C0.0587088 9.14941 0.0606627 9.15579 0.0637714 9.16157C0.0668801 9.16734 0.0710787 9.1724 0.0761115 9.17642C1.13564 9.98452 2.31741 10.6001 3.57193 10.9974C3.58067 11.0002 3.59003 11.0002 3.59877 10.9974C3.60751 10.9946 3.61523 10.989 3.62093 10.9815C3.89042 10.6027 4.13074 10.2024 4.33607 9.78199C4.34832 9.75755 4.33666 9.72822 4.31216 9.71844C3.93534 9.56979 3.57023 9.3904 3.22019 9.18192C3.2139 9.17816 3.2086 9.17282 3.20476 9.16639C3.20093 9.15995 3.19868 9.15262 3.19822 9.14505C3.19775 9.13748 3.19909 9.1299 3.20211 9.12301C3.20513 9.11611 3.20974 9.11011 3.21552 9.10554C3.28902 9.04871 3.36252 8.98944 3.43251 8.93016C3.43882 8.92483 3.4464 8.92144 3.45444 8.92036C3.46247 8.91928 3.47063 8.92056 3.47801 8.92405C5.7687 10.002 8.24954 10.002 10.5134 8.92405C10.5208 8.92035 10.529 8.9189 10.5372 8.91988C10.5453 8.92085 10.5531 8.9242 10.5595 8.92955C10.6295 8.98943 10.7024 9.04871 10.7765 9.10554C10.7823 9.11001 10.787 9.11593 10.7901 9.12277C10.7932 9.12961 10.7947 9.13715 10.7943 9.14472C10.794 9.15228 10.7918 9.15964 10.7881 9.16614C10.7844 9.17263 10.7792 9.17805 10.773 9.18192C10.4241 9.39213 10.0613 9.56995 9.68042 9.71783C9.67457 9.72006 9.66924 9.72356 9.66478 9.72812C9.66033 9.73267 9.65686 9.73817 9.65459 9.74424C9.65233 9.75031 9.65133 9.75682 9.65166 9.76333C9.65199 9.76984 9.65364 9.77621 9.6565 9.78199C9.8665 10.2018 10.1068 10.6014 10.3711 10.9809C10.3766 10.9887 10.3842 10.9945 10.393 10.9976C10.4017 11.0006 10.4112 11.0008 10.4201 10.998C11.6767 10.6018 12.8604 9.98596 13.9211 9.17642C13.9263 9.17263 13.9306 9.16773 13.9339 9.16204C13.9371 9.15635 13.9391 9.15 13.9398 9.14342C14.2315 6.03063 13.451 3.32603 11.8696 0.929408C11.8657 0.92162 11.8593 0.915549 11.8515 0.912299ZM4.67848 7.50331C3.989 7.50331 3.42026 6.85008 3.42026 6.04896C3.42026 5.24724 3.97792 4.59461 4.67848 4.59461C5.38429 4.59461 5.94777 5.25274 5.93669 6.04896C5.93669 6.85069 5.37904 7.50331 4.67848 7.50331ZM9.33043 7.50331C8.64036 7.50331 8.07221 6.85008 8.07221 6.04896C8.07221 5.24724 8.62928 4.59461 9.33043 4.59461C10.0362 4.59461 10.5997 5.25274 10.5886 6.04896C10.5886 6.85069 10.0368 7.50331 9.33043 7.50331Z" fill="#929292"/>
</svg>
