<svg width="14" height="14" viewBox="0 0 14 14" fill="none" xmlns="http://www.w3.org/2000/svg">
<path fill-rule="evenodd" clip-rule="evenodd" d="M3.94221 0.0402452C4.65747 0.00731731 4.88553 0 6.70754 0C8.52956 0 8.75761 0.00792709 9.47227 0.0402452C10.1869 0.0725634 10.6747 0.186592 11.1016 0.351841C11.5486 0.520749 11.9541 0.784782 12.2894 1.12626C12.6309 1.46102 12.8943 1.86592 13.0626 2.31349C13.2285 2.74034 13.3419 3.22816 13.3748 3.9416C13.4078 4.65808 13.4151 4.88614 13.4151 6.70754C13.4151 8.52956 13.4072 8.75761 13.3748 9.47288C13.3425 10.1863 13.2285 10.6741 13.0626 11.101C12.8943 11.5486 12.6305 11.9542 12.2894 12.2894C11.9541 12.6309 11.5486 12.8943 11.1016 13.0626C10.6747 13.2285 10.1869 13.3419 9.47349 13.3748C8.75761 13.4078 8.52956 13.4151 6.70754 13.4151C4.88553 13.4151 4.65747 13.4072 3.94221 13.3748C3.22877 13.3425 2.74095 13.2285 2.3141 13.0626C1.86648 12.8943 1.46092 12.6305 1.12565 12.2894C0.784404 11.9545 0.520331 11.5491 0.351841 11.1016C0.186592 10.6747 0.0731732 10.1869 0.0402452 9.47349C0.00731731 8.757 0 8.52895 0 6.70754C0 4.88553 0.00792709 4.65747 0.0402452 3.94282C0.0725634 3.22816 0.186592 2.74034 0.351841 2.31349C0.52058 1.86597 0.784855 1.46061 1.12626 1.12565C1.46105 0.784478 1.8662 0.52041 2.31349 0.351841C2.74034 0.186592 3.22816 0.0731732 3.9416 0.0402452H3.94221ZM9.418 1.2476C8.71066 1.21528 8.49846 1.20858 6.70754 1.20858C4.91663 1.20858 4.70443 1.21528 3.99709 1.2476C3.3428 1.27748 2.98791 1.38663 2.75131 1.47871C2.4385 1.60066 2.21471 1.74518 1.97994 1.97994C1.7574 2.19645 1.58614 2.46001 1.47871 2.75131C1.38663 2.98791 1.27748 3.3428 1.2476 3.99709C1.21528 4.70443 1.20858 4.91663 1.20858 6.70754C1.20858 8.49846 1.21528 8.71066 1.2476 9.418C1.27748 10.0723 1.38663 10.4272 1.47871 10.6638C1.58603 10.9546 1.75738 11.2187 1.97994 11.4351C2.19642 11.6577 2.46045 11.8291 2.75131 11.9364C2.98791 12.0285 3.3428 12.1376 3.99709 12.1675C4.70443 12.1998 4.91602 12.2065 6.70754 12.2065C8.49907 12.2065 8.71066 12.1998 9.418 12.1675C10.0723 12.1376 10.4272 12.0285 10.6638 11.9364C10.9766 11.8144 11.2004 11.6699 11.4351 11.4351C11.6577 11.2187 11.8291 10.9546 11.9364 10.6638C12.0285 10.4272 12.1376 10.0723 12.1675 9.418C12.1998 8.71066 12.2065 8.49846 12.2065 6.70754C12.2065 4.91663 12.1998 4.70443 12.1675 3.99709C12.1376 3.3428 12.0285 2.98791 11.9364 2.75131C11.8144 2.4385 11.6699 2.21471 11.4351 1.97994C11.2186 1.75742 10.9551 1.58616 10.6638 1.47871C10.4272 1.38663 10.0723 1.27748 9.418 1.2476ZM5.85081 8.7753C6.32927 8.97447 6.86205 9.00135 7.35813 8.85135C7.85422 8.70135 8.28284 8.38377 8.57078 7.95285C8.85873 7.52194 8.98814 7.00443 8.93691 6.4887C8.88569 5.97297 8.657 5.49102 8.28991 5.12517C8.0559 4.89131 7.77295 4.71224 7.46143 4.60085C7.14991 4.48947 6.81756 4.44854 6.48833 4.48101C6.15909 4.51349 5.84114 4.61856 5.55738 4.78866C5.27363 4.95875 5.03111 5.18965 4.8473 5.46473C4.66349 5.7398 4.54295 6.05221 4.49437 6.37946C4.44579 6.70671 4.47036 7.04066 4.56634 7.35727C4.66231 7.67388 4.82729 7.96527 5.04939 8.21047C5.27149 8.45567 5.5452 8.64857 5.85081 8.7753ZM4.26966 4.26966C4.5898 3.94951 4.96987 3.69555 5.38817 3.52229C5.80646 3.34903 6.25479 3.25985 6.70754 3.25985C7.1603 3.25985 7.60862 3.34903 8.02692 3.52229C8.44521 3.69555 8.82528 3.94951 9.14543 4.26966C9.46558 4.5898 9.71953 4.96987 9.8928 5.38817C10.0661 5.80646 10.1552 6.25479 10.1552 6.70754C10.1552 7.1603 10.0661 7.60862 9.8928 8.02692C9.71953 8.44521 9.46558 8.82528 9.14543 9.14543C8.49886 9.792 7.62193 10.1552 6.70754 10.1552C5.79316 10.1552 4.91622 9.792 4.26966 9.14543C3.62309 8.49886 3.25985 7.62193 3.25985 6.70754C3.25985 5.79316 3.62309 4.91622 4.26966 4.26966ZM10.9199 3.7733C10.9992 3.69846 11.0627 3.60846 11.1067 3.50864C11.1506 3.40881 11.174 3.30119 11.1756 3.19214C11.1772 3.08309 11.1569 2.97482 11.1159 2.87376C11.0749 2.7727 11.014 2.68089 10.9369 2.60377C10.8598 2.52665 10.768 2.46579 10.6669 2.42479C10.5659 2.38379 10.4576 2.36348 10.3486 2.36507C10.2395 2.36666 10.1319 2.39011 10.0321 2.43404C9.93224 2.47797 9.84224 2.54149 9.7674 2.62082C9.62185 2.77511 9.54217 2.98005 9.54526 3.19214C9.54835 3.40422 9.63398 3.60675 9.78396 3.75674C9.93394 3.90672 10.1365 3.99235 10.3486 3.99544C10.5606 3.99853 10.7656 3.91885 10.9199 3.7733Z" fill="#929292"/>
</svg>
