<svg width="14" height="11" viewBox="0 0 14 11" fill="none" xmlns="http://www.w3.org/2000/svg">
<path d="M12.5617 2.74139C12.5709 2.86198 12.5709 2.98189 12.5709 3.1018C12.5709 6.77146 9.68359 11 4.40688 11C2.78119 11 1.27091 10.5445 0 9.75335C0.230816 9.77885 0.453084 9.78781 0.693161 9.78781C1.98473 9.79083 3.23972 9.37304 4.25585 8.6018C3.65703 8.59132 3.07653 8.4002 2.59543 8.05514C2.11432 7.71007 1.75661 7.22828 1.57226 6.67705C1.74964 6.70254 1.92774 6.71977 2.11439 6.71977C2.37157 6.71977 2.63016 6.68532 2.87024 6.62536C2.22037 6.49843 1.636 6.15768 1.2165 5.66104C0.797002 5.1644 0.568273 4.54255 0.569204 3.9012V3.86675C0.951761 4.0728 1.39558 4.20167 1.86576 4.21889C1.47187 3.9657 1.14889 3.62212 0.925644 3.21881C0.702393 2.81551 0.585812 2.36502 0.586302 1.90753C0.586302 1.39206 0.728068 0.919309 0.976695 0.507205C1.69774 1.36519 2.59704 2.06711 3.61636 2.56749C4.63568 3.06787 5.75228 3.35555 6.89385 3.41192C6.84968 3.20517 6.82261 2.99085 6.82261 2.77584C6.82243 2.41126 6.89652 2.05022 7.04066 1.71336C7.1848 1.3765 7.39616 1.07042 7.66266 0.812622C7.92916 0.554825 8.24557 0.350365 8.5938 0.21093C8.94203 0.0714949 9.31526 -0.000180815 9.69214 3.42544e-07C10.5185 3.42544e-07 11.2644 0.334921 11.7887 0.876582C12.4311 0.756408 13.0472 0.529548 13.6096 0.206052C13.3955 0.847511 12.9469 1.39144 12.348 1.73594C12.9177 1.67307 13.4746 1.52813 14 1.30591C13.6076 1.85936 13.1213 2.34468 12.5617 2.74139Z" fill="#929292"/>
</svg>
