<?xml version="1.0" standalone="no"?>
<!DOCTYPE svg PUBLIC "-//W3C//DTD SVG 20010904//EN"
 "http://www.w3.org/TR/2001/REC-SVG-20010904/DTD/svg10.dtd">
<svg version="1.0" xmlns="http://www.w3.org/2000/svg"
 width="152.000000pt" height="152.000000pt" viewBox="0 0 152.000000 152.000000"
 preserveAspectRatio="xMidYMid meet">

<g transform="translate(0.000000,152.000000) scale(0.100000,-0.100000)"
fill="#000000" stroke="none">
<path d="M633 1193 c76 -2 198 -2 270 0 73 1 11 3 -138 3 -148 0 -208 -2 -132
-3z"/>
<path d="M1058 1183 c7 -3 16 -2 19 1 4 3 -2 6 -13 5 -11 0 -14 -3 -6 -6z"/>
<path d="M474 1100 c-12 -4 -31 -21 -43 -36 -20 -26 -21 -36 -21 -301 0 -225
3 -279 15 -303 18 -35 44 -50 82 -49 27 1 27 1 -6 9 -18 4 -43 18 -55 29 -20
21 -21 31 -24 301 l-3 279 30 33 29 33 266 3 c235 3 270 1 302 -14 60 -29 64
-50 64 -336 0 -234 -2 -255 -20 -285 -11 -19 -31 -35 -47 -39 -46 -10 -50 -12
-20 -13 38 -1 64 14 82 49 12 24 15 78 15 304 l0 276 -29 32 -29 33 -284 2
c-155 1 -293 -2 -304 -7z"/>
<path d="M324 760 c0 -157 2 -221 3 -142 2 78 2 206 0 285 -1 78 -3 14 -3
-143z"/>
<path d="M1204 760 c0 -157 2 -221 3 -142 2 78 2 206 0 285 -1 78 -3 14 -3
-143z"/>
<path d="M748 1013 c12 -2 30 -2 40 0 9 3 -1 5 -23 4 -22 0 -30 -2 -17 -4z"/>
<path d="M670 1000 c-18 -12 -2 -12 25 0 13 6 15 9 5 9 -8 0 -22 -4 -30 -9z"/>
<path d="M835 1000 c27 -12 43 -12 25 0 -8 5 -22 9 -30 9 -10 0 -8 -3 5 -9z"/>
<path d="M923 958 c16 -13 37 -34 48 -48 12 -14 17 -18 13 -10 -11 24 -47 61
-69 72 -11 5 -8 0 8 -14z"/>
<path d="M574 938 l-19 -23 23 19 c21 18 27 26 19 26 -2 0 -12 -10 -23 -22z"/>
<path d="M695 916 c-42 -18 -93 -79 -101 -121 -21 -112 58 -208 172 -208 157
0 232 188 118 295 -52 48 -126 61 -189 34z m142 -16 c102 -46 122 -185 38
-259 -69 -60 -151 -60 -220 0 -60 53 -69 134 -25 207 23 37 88 72 135 72 17 0
49 -9 72 -20z"/>
<path d="M1001 855 c1 -19 18 -51 18 -35 0 8 -4 22 -9 30 -5 8 -9 11 -9 5z"/>
<path d="M511 824 c0 -11 3 -14 6 -6 3 7 2 16 -1 19 -3 4 -6 -2 -5 -13z"/>
<path d="M503 760 c0 -25 2 -35 4 -22 2 12 2 32 0 45 -2 12 -4 2 -4 -23z"/>
<path d="M1023 760 c0 -25 2 -35 4 -22 2 12 2 32 0 45 -2 12 -4 2 -4 -23z"/>
<path d="M520 667 c-1 -18 31 -64 67 -97 l38 -35 -36 40 c-20 22 -44 54 -52
70 -9 17 -16 26 -17 22z"/>
<path d="M991 643 c-10 -26 -10 -27 4 -9 8 11 15 23 15 28 0 15 -7 8 -19 -19z"/>
<path d="M939 573 l-34 -38 38 34 c34 33 42 41 34 41 -2 0 -19 -17 -38 -37z"/>
<path d="M708 503 c6 -2 18 -2 25 0 6 3 1 5 -13 5 -14 0 -19 -2 -12 -5z"/>
<path d="M798 503 c6 -2 18 -2 25 0 6 3 1 5 -13 5 -14 0 -19 -2 -12 -5z"/>
<path d="M350 407 c0 -2 15 -16 33 -33 l32 -29 -29 33 c-28 30 -36 37 -36 29z"/>
<path d="M1144 378 l-29 -33 33 29 c17 17 32 31 32 33 0 8 -8 1 -36 -29z"/>
<path d="M618 323 c84 -2 219 -2 300 0 81 1 12 3 -153 3 -165 0 -231 -2 -147
-3z"/>
</g>
</svg>
