<svg width="16" height="17" viewBox="0 0 16 17" fill="none" xmlns="http://www.w3.org/2000/svg">
<path d="M14.8668 3.96549C14.0089 3.79007 13.2329 3.36646 12.6501 2.75545C12.0672 2.14444 11.7075 1.37744 11.6225 0.564504V0.212402H8.65366V11.1516C8.65427 11.637 8.49062 12.1102 8.18591 12.5043C7.8812 12.8984 7.45087 13.1934 6.95587 13.3474C6.46088 13.5014 5.92632 13.5067 5.42791 13.3625C4.9295 13.2183 4.49252 12.9319 4.17886 12.544C3.89785 12.2005 3.72577 11.7909 3.68209 11.3612C3.63841 10.9316 3.72487 10.4992 3.93169 10.1129C4.13851 9.72655 4.45744 9.40175 4.85241 9.1752C5.24739 8.94865 5.70264 8.82939 6.1667 8.8309C6.42335 8.82953 6.67872 8.86461 6.92398 8.93493V6.13411C6.63857 6.10125 6.35095 6.08787 6.06344 6.0941C5.00438 6.12042 3.97656 6.43335 3.10584 6.99458C2.23511 7.55581 1.55928 8.34097 1.1611 9.25393C0.762914 10.1669 0.659663 11.168 0.863988 12.1347C1.06831 13.1014 1.57135 13.9917 2.31149 14.6966C3.07004 15.4138 4.04073 15.9051 5.10023 16.108C6.15973 16.311 7.2602 16.2165 8.26182 15.8366C9.26344 15.4566 10.121 14.8084 10.7255 13.9742C11.33 13.14 11.6543 12.1575 11.6569 11.1516V5.54995C12.8544 6.34533 14.2902 6.77082 15.7617 6.7663V4.04551C15.4727 4.04662 15.1843 4.0198 14.9012 3.96549H14.8668Z" fill="#f9f9f9"/>
</svg>
