<?xml version="1.0" standalone="no"?>
<!DOCTYPE svg PUBLIC "-//W3C//DTD SVG 20010904//EN"
 "http://www.w3.org/TR/2001/REC-SVG-20010904/DTD/svg10.dtd">
<svg version="1.0" xmlns="http://www.w3.org/2000/svg"
 width="152.000000pt" height="152.000000pt" viewBox="0 0 152.000000 152.000000"
 preserveAspectRatio="xMidYMid meet">

<g transform="translate(0.000000,152.000000) scale(0.100000,-0.100000)"
fill="#000000" stroke="none">
<path d="M608 1193 c101 -2 263 -2 360 0 97 1 15 2 -183 2 -198 0 -278 -1
-177 -2z"/>
<path d="M1174 920 c0 -135 2 -190 3 -122 2 67 2 177 0 245 -1 67 -3 12 -3
-123z"/>
<path d="M366 1110 c-9 -22 -16 -46 -16 -53 1 -6 10 10 20 37 11 28 18 51 16
53 -2 2 -11 -14 -20 -37z"/>
<path d="M490 845 l0 -265 63 2 c53 1 55 2 17 5 -24 3 -50 9 -57 15 -10 8 -13
67 -13 244 0 220 1 234 19 244 12 6 116 10 268 10 209 0 252 -2 271 -16 21
-15 22 -21 22 -185 0 -191 -3 -202 -69 -262 -47 -42 -59 -46 -161 -50 -71 -3
-70 -3 20 -5 l96 -2 62 63 62 63 0 202 0 202 -300 0 -300 0 0 -265z"/>
<path d="M344 755 c0 -159 2 -223 3 -142 2 82 2 212 0 290 -1 78 -3 12 -3
-148z"/>
<path d="M764 850 c0 -52 1 -74 3 -47 2 26 2 68 0 95 -2 26 -3 4 -3 -48z"/>
<path d="M673 850 c0 -41 2 -58 4 -37 2 20 2 54 0 75 -2 20 -4 3 -4 -38z"/>
<path d="M973 850 c0 -41 2 -58 4 -37 2 20 2 54 0 75 -2 20 -4 3 -4 -38z"/>
<path d="M718 733 c7 -3 16 -2 19 1 4 3 -2 6 -13 5 -11 0 -14 -3 -6 -6z"/>
<path d="M918 733 c7 -3 16 -2 19 1 4 3 -2 6 -13 5 -11 0 -14 -3 -6 -6z"/>
<path d="M1055 548 l-100 -103 103 100 c95 93 107 105 99 105 -1 0 -47 -46
-102 -102z"/>
<path d="M717 552 c-22 -14 -31 -15 -47 -4 -19 11 -20 10 -20 -35 l0 -47 50
49 c62 61 65 67 17 37z"/>
<path d="M450 433 c70 -4 87 -13 93 -46 2 -13 5 -6 6 16 l1 37 -82 -2 c-80 -2
-81 -2 -18 -5z"/>
<path d="M720 383 c-57 -59 -43 -55 23 6 34 32 45 37 110 42 l72 6 -75 1 -76
2 -54 -57z"/>
<path d="M603 323 c9 -2 25 -2 35 0 9 3 1 5 -18 5 -19 0 -27 -2 -17 -5z"/>
</g>
</svg>
