<?xml version="1.0" standalone="no"?>
<!DOCTYPE svg PUBLIC "-//W3C//DTD SVG 20010904//EN"
 "http://www.w3.org/TR/2001/REC-SVG-20010904/DTD/svg10.dtd">
<svg version="1.0" xmlns="http://www.w3.org/2000/svg"
 width="152.000000pt" height="152.000000pt" viewBox="0 0 152.000000 152.000000"
 preserveAspectRatio="xMidYMid meet">

<g transform="translate(0.000000,152.000000) scale(0.100000,-0.100000)"
fill="#000000" stroke="none">
<path d="M355 1181 c-20 -6 15 -9 106 -10 l136 -1 81 -104 c44 -58 88 -116 98
-131 l17 -26 36 38 c84 88 197 223 188 223 -3 0 -47 -47 -97 -104 -50 -57 -97
-107 -105 -110 -27 -10 -43 5 -119 103 -41 53 -81 103 -91 111 -19 16 -202 24
-250 11z"/>
<path d="M1055 1179 c-23 -5 -16 -7 28 -8 31 0 57 1 57 3 0 8 -56 11 -85 5z"/>
<path d="M320 1144 c0 -5 66 -94 145 -199 80 -104 148 -199 151 -211 8 -30 6
-33 -132 -191 -66 -76 -124 -144 -128 -150 -18 -31 7 -7 77 74 41 49 83 97 94
108 10 11 42 48 71 82 l54 62 -55 73 c-83 110 -265 350 -272 356 -3 3 -5 1 -5
-4z"/>
<path d="M1102 1097 c-23 -29 -54 -66 -70 -82 -15 -17 -59 -66 -99 -111 l-72
-81 40 -54 c57 -76 71 -94 137 -179 31 -41 81 -108 111 -147 29 -40 55 -73 58
-73 9 0 -26 49 -167 235 -75 99 -140 188 -143 198 -10 27 0 41 133 193 101
115 133 156 118 154 -2 -1 -22 -24 -46 -53z"/>
<path d="M480 1085 c0 -4 253 -338 367 -485 20 -25 56 -73 81 -107 43 -59 48
-63 85 -63 l39 0 -17 28 c-10 15 -48 65 -84 112 -37 47 -113 148 -171 225 -57
77 -107 142 -110 145 -3 3 -29 38 -59 78 -50 68 -55 72 -92 72 -21 0 -39 -2
-39 -5z m99 -59 c34 -36 401 -530 401 -539 0 -18 -20 1 -77 73 -186 237 -363
470 -363 479 0 18 15 12 39 -13z"/>
<path d="M695 607 c-11 -12 -63 -73 -117 -135 -54 -62 -98 -116 -98 -119 0
-10 21 12 120 127 46 52 89 99 97 103 26 16 49 -4 132 -113 46 -60 91 -115 99
-122 14 -12 15 -11 2 7 -46 64 -201 264 -208 269 -5 3 -17 -5 -27 -17z"/>
<path d="M388 333 c12 -2 32 -2 45 0 12 2 2 4 -23 4 -25 0 -35 -2 -22 -4z"/>
<path d="M1013 333 c31 -2 83 -2 115 0 31 2 5 3 -58 3 -63 0 -89 -1 -57 -3z"/>
</g>
</svg>
