<svg width="21" height="15" viewBox="0 0 21 15" fill="none" xmlns="http://www.w3.org/2000/svg">
<path d="M17.7773 1.24404C16.4386 0.669081 15.0036 0.244109 13.503 0.00245831C13.4897 1.50672e-05 13.4758 0.00158958 13.4634 0.00696413C13.4511 0.0123387 13.4407 0.0212473 13.4339 0.0324563C13.2502 0.339936 13.0454 0.740743 12.9019 1.05739C11.3104 0.830935 9.69243 0.830935 8.10094 1.05739C7.94111 0.706463 7.76088 0.364288 7.56108 0.0324563C7.5543 0.0211093 7.54406 0.0119992 7.53171 0.0063415C7.51936 0.000683842 7.50549 -0.00125226 7.49195 0.000791676C5.99225 0.242442 4.55729 0.667415 3.2177 1.24321C3.20618 1.24781 3.19641 1.25566 3.1897 1.26571C0.466782 5.07796 -0.279571 8.79605 0.087043 12.4675C0.0880632 12.4765 0.090994 12.4852 0.0956571 12.493C0.10032 12.5009 0.106618 12.5078 0.114167 12.5133C1.70346 13.6153 3.47611 14.4547 5.35789 14.9965C5.37101 15.0003 5.38504 15.0003 5.39815 14.9964C5.41126 14.9926 5.42285 14.985 5.43139 14.9748C5.83563 14.4582 6.19612 13.9124 6.50411 13.3391C6.52248 13.3058 6.50498 13.2658 6.46823 13.2524C5.903 13.0497 5.35534 12.8051 4.83028 12.5208C4.82085 12.5157 4.8129 12.5084 4.80714 12.4996C4.80139 12.4908 4.79802 12.4808 4.79732 12.4705C4.79663 12.4602 4.79864 12.4499 4.80317 12.4405C4.8077 12.4311 4.81461 12.4229 4.82328 12.4166C4.93353 12.3391 5.04377 12.2583 5.14877 12.1775C5.15822 12.1702 5.16961 12.1656 5.18166 12.1641C5.19371 12.1627 5.20595 12.1644 5.21702 12.1692C8.65304 13.6391 12.3743 13.6391 15.7701 12.1692C15.7812 12.1641 15.7936 12.1621 15.8058 12.1635C15.818 12.1648 15.8296 12.1694 15.8392 12.1767C15.9442 12.2583 16.0536 12.3391 16.1647 12.4166C16.1735 12.4227 16.1805 12.4308 16.1852 12.4401C16.1898 12.4495 16.192 12.4597 16.1915 12.4701C16.191 12.4804 16.1878 12.4904 16.1822 12.4993C16.1766 12.5081 16.1688 12.5155 16.1595 12.5208C15.6362 12.8075 15.092 13.0499 14.5206 13.2516C14.5119 13.2546 14.5039 13.2594 14.4972 13.2656C14.4905 13.2718 14.4853 13.2793 14.4819 13.2876C14.4785 13.2959 14.477 13.3048 14.4775 13.3136C14.478 13.3225 14.4805 13.3312 14.4848 13.3391C14.7997 13.9115 15.1602 14.4565 15.5566 14.974C15.5648 14.9846 15.5763 14.9925 15.5895 14.9967C15.6026 15.0009 15.6168 15.0011 15.6301 14.9973C17.5151 14.457 19.2906 13.6172 20.8817 12.5133C20.8895 12.5081 20.896 12.5014 20.9008 12.4937C20.9056 12.4859 20.9087 12.4773 20.9097 12.4683C21.3472 8.22359 20.1765 4.53549 17.8044 1.26738C17.7986 1.25675 17.789 1.24848 17.7773 1.24404ZM7.01772 10.2318C5.9835 10.2318 5.1304 9.34101 5.1304 8.24858C5.1304 7.15532 5.96687 6.26538 7.01772 6.26538C8.07644 6.26538 8.92166 7.16282 8.90504 8.24858C8.90504 9.34184 8.06856 10.2318 7.01772 10.2318ZM13.9956 10.2318C12.9605 10.2318 12.1083 9.34101 12.1083 8.24858C12.1083 7.15532 12.9439 6.26538 13.9956 6.26538C15.0544 6.26538 15.8996 7.16282 15.883 8.24858C15.883 9.34184 15.0552 10.2318 13.9956 10.2318Z" fill="#838383"/>
</svg>
