<svg width="23" height="21" viewBox="0 0 23 21" fill="none" xmlns="http://www.w3.org/2000/svg">
<g filter="url(#filter0_d_853:1583)">
<path d="M19.2678 3.80092C18.2605 2.78233 16.9253 2.16064 15.5033 2.04815C14.0812 1.93566 12.6662 2.33979 11.5138 3.18754C10.3048 2.28054 8.79992 1.86926 7.30227 2.03652C5.80462 2.20379 4.42543 2.93718 3.44244 4.08901C2.45944 5.24083 1.94566 6.72554 2.00456 8.24413C2.06345 9.76273 2.69065 11.2024 3.75984 12.2733L9.66084 18.2346C10.155 18.7251 10.8205 19 11.5138 19C12.2071 19 12.8726 18.7251 13.3668 18.2346L19.2678 12.2733C20.3773 11.1474 21 9.62449 21 8.0371C21 6.44971 20.3773 4.9268 19.2678 3.80092ZM17.9279 10.9507L12.0269 16.9024C11.9598 16.9708 11.8799 17.0251 11.7918 17.0621C11.7037 17.0992 11.6092 17.1183 11.5138 17.1183C11.4184 17.1183 11.3239 17.0992 11.2358 17.0621C11.1478 17.0251 11.0678 16.9708 11.0007 16.9024L5.09968 10.9219C4.35446 10.1536 3.93717 9.12151 3.93717 8.04669C3.93717 6.97186 4.35446 5.93977 5.09968 5.17145C5.85907 4.41525 6.88326 3.99123 7.95041 3.99123C9.01755 3.99123 10.0417 4.41525 10.8011 5.17145C10.8895 5.26128 10.9946 5.33258 11.1104 5.38124C11.2262 5.4299 11.3504 5.45495 11.4758 5.45495C11.6012 5.45495 11.7254 5.4299 11.8412 5.38124C11.957 5.33258 12.0621 5.26128 12.1505 5.17145C12.9099 4.41525 13.9341 3.99123 15.0012 3.99123C16.0683 3.99123 17.0925 4.41525 17.8519 5.17145C18.6074 5.9297 19.0384 6.9562 19.0526 8.03105C19.0668 9.1059 18.6631 10.1436 17.9279 10.9219V10.9507Z" fill="#6701E1"/>
<path d="M19.2678 3.80092C18.2605 2.78233 16.9253 2.16064 15.5033 2.04815C14.0812 1.93566 12.6662 2.33979 11.5138 3.18754C10.3048 2.28054 8.79992 1.86926 7.30227 2.03652C5.80462 2.20379 4.42543 2.93718 3.44244 4.08901C2.45944 5.24083 1.94566 6.72554 2.00456 8.24413C2.06345 9.76273 2.69065 11.2024 3.75984 12.2733L9.66084 18.2346C10.155 18.7251 10.8205 19 11.5138 19C12.2071 19 12.8726 18.7251 13.3668 18.2346L19.2678 12.2733C20.3773 11.1474 21 9.62449 21 8.0371C21 6.44971 20.3773 4.9268 19.2678 3.80092ZM17.9279 10.9507L12.0269 16.9024C11.9598 16.9708 11.8799 17.0251 11.7918 17.0621C11.7037 17.0992 11.6092 17.1183 11.5138 17.1183C11.4184 17.1183 11.3239 17.0992 11.2358 17.0621C11.1478 17.0251 11.0678 16.9708 11.0007 16.9024L5.09968 10.9219C4.35446 10.1536 3.93717 9.12151 3.93717 8.04669C3.93717 6.97186 4.35446 5.93977 5.09968 5.17145C5.85907 4.41525 6.88326 3.99123 7.95041 3.99123C9.01755 3.99123 10.0417 4.41525 10.8011 5.17145C10.8895 5.26128 10.9946 5.33258 11.1104 5.38124C11.2262 5.4299 11.3504 5.45495 11.4758 5.45495C11.6012 5.45495 11.7254 5.4299 11.8412 5.38124C11.957 5.33258 12.0621 5.26128 12.1505 5.17145C12.9099 4.41525 13.9341 3.99123 15.0012 3.99123C16.0683 3.99123 17.0925 4.41525 17.8519 5.17145C18.6074 5.9297 19.0384 6.9562 19.0526 8.03105C19.0668 9.1059 18.6631 10.1436 17.9279 10.9219V10.9507Z" fill="url(#paint0_linear_853:1583)" fill-opacity="0.2"/>
</g>
<defs>
<filter id="filter0_d_853:1583" x="0" y="0" width="23" height="21" filterUnits="userSpaceOnUse" color-interpolation-filters="sRGB">
<feFlood flood-opacity="0" result="BackgroundImageFix"/>
<feColorMatrix in="SourceAlpha" type="matrix" values="0 0 0 0 0 0 0 0 0 0 0 0 0 0 0 0 0 0 127 0" result="hardAlpha"/>
<feOffset/>
<feGaussianBlur stdDeviation="1"/>
<feComposite in2="hardAlpha" operator="out"/>
<feColorMatrix type="matrix" values="0 0 0 0 0.403922 0 0 0 0 0.00392157 0 0 0 0 0.882353 0 0 0 1 0"/>
<feBlend mode="normal" in2="BackgroundImageFix" result="effect1_dropShadow_853:1583"/>
<feBlend mode="normal" in="SourceGraphic" in2="effect1_dropShadow_853:1583" result="shape"/>
</filter>
<linearGradient id="paint0_linear_853:1583" x1="11.5" y1="2" x2="11.5" y2="19" gradientUnits="userSpaceOnUse">
<stop stop-color="white"/>
<stop offset="1" stop-opacity="0"/>
</linearGradient>
</defs>
</svg>
