<svg width="20" height="20" viewBox="0 0 20 20" fill="none" xmlns="http://www.w3.org/2000/svg">
<path fill-rule="evenodd" clip-rule="evenodd" d="M5.83091 0.0570945C6.84563 0.0103808 7.16916 0 9.75397 0C12.3388 0 12.6623 0.0112459 13.6762 0.0570945C14.69 0.102943 15.3821 0.264711 15.9876 0.499144C16.6217 0.738768 17.197 1.11334 17.6727 1.59778C18.1572 2.0727 18.5309 2.64711 18.7696 3.28207C19.0049 3.88762 19.1658 4.57967 19.2126 5.5918C19.2593 6.60825 19.2697 6.93179 19.2697 9.51575C19.2697 12.1006 19.2584 12.4241 19.2126 13.4388C19.1667 14.451 19.0049 15.143 18.7696 15.7486C18.5309 16.3836 18.1566 16.959 17.6727 17.4346C17.197 17.919 16.6217 18.2927 15.9876 18.5315C15.3821 18.7668 14.69 18.9277 13.6779 18.9744C12.6623 19.0211 12.3388 19.0315 9.75397 19.0315C7.16916 19.0315 6.84563 19.0202 5.83091 18.9744C4.81879 18.9286 4.12674 18.7668 3.52119 18.5315C2.88617 18.2927 2.31082 17.9184 1.83519 17.4346C1.35108 16.9594 0.976452 16.3843 0.737422 15.7494C0.50299 15.1439 0.342089 14.4518 0.295375 13.4397C0.248662 12.4232 0.238281 12.0997 0.238281 9.51575C0.238281 6.93092 0.249527 6.60739 0.295375 5.59353C0.341224 4.57967 0.50299 3.88762 0.737422 3.28207C0.976805 2.64718 1.35172 2.07211 1.83605 1.59692C2.31101 1.11291 2.88578 0.738286 3.52033 0.499144C4.12587 0.264711 4.81792 0.103808 5.83004 0.0570945H5.83091ZM13.5992 1.76993C12.5957 1.72408 12.2947 1.71456 9.75397 1.71456C7.21328 1.71456 6.91224 1.72408 5.90876 1.76993C4.98055 1.81232 4.47709 1.96716 4.14144 2.09779C3.69767 2.2708 3.38019 2.47582 3.04714 2.80888C2.73143 3.11602 2.48846 3.48993 2.33606 3.90319C2.20543 4.23883 2.05059 4.7423 2.0082 5.67052C1.96235 6.674 1.95283 6.97504 1.95283 9.51575C1.95283 12.0565 1.96235 12.3575 2.0082 13.361C2.05059 14.2892 2.20543 14.7927 2.33606 15.1283C2.48831 15.5409 2.73139 15.9155 3.04714 16.2226C3.35424 16.5384 3.72881 16.7815 4.14144 16.9337C4.47709 17.0643 4.98055 17.2192 5.90876 17.2616C6.91224 17.3074 7.21241 17.3169 9.75397 17.3169C12.2955 17.3169 12.5957 17.3074 13.5992 17.2616C14.5274 17.2192 15.0308 17.0643 15.3665 16.9337C15.8103 16.7607 16.1277 16.5557 16.4608 16.2226C16.7765 15.9155 17.0196 15.5409 17.1719 15.1283C17.3025 14.7927 17.4573 14.2892 17.4997 13.361C17.5456 12.3575 17.5551 12.0565 17.5551 9.51575C17.5551 6.97504 17.5456 6.674 17.4997 5.67052C17.4573 4.7423 17.3025 4.23883 17.1719 3.90319C16.9989 3.45941 16.7938 3.14193 16.4608 2.80888C16.1536 2.49319 15.7797 2.25022 15.3665 2.09779C15.0308 1.96716 14.5274 1.81232 13.5992 1.76993ZM8.53856 12.4492C9.21733 12.7318 9.97316 12.7699 10.6769 12.5571C11.3807 12.3443 11.9888 11.8937 12.3973 11.2824C12.8058 10.6711 12.9893 9.93692 12.9167 9.20528C12.844 8.47363 12.5196 7.78991 11.9988 7.2709C11.6668 6.93912 11.2654 6.68508 10.8235 6.52706C10.3815 6.36905 9.91005 6.31098 9.44297 6.35705C8.9759 6.40312 8.52485 6.55218 8.12229 6.79349C7.71973 7.0348 7.37569 7.36237 7.11492 7.75261C6.85416 8.14285 6.68316 8.58605 6.61424 9.05031C6.54531 9.51456 6.58018 9.98833 6.71633 10.4375C6.85249 10.8867 7.08653 11.3 7.40162 11.6479C7.71671 11.9958 8.10501 12.2694 8.53856 12.4492ZM6.29545 6.05721C6.74963 5.60302 7.28882 5.24275 7.88223 4.99694C8.47564 4.75114 9.11166 4.62463 9.75397 4.62463C10.3963 4.62463 11.0323 4.75114 11.6257 4.99694C12.2191 5.24275 12.7583 5.60302 13.2125 6.05721C13.6667 6.51139 14.0269 7.05058 14.2727 7.644C14.5185 8.23742 14.6451 8.87344 14.6451 9.51575C14.6451 10.1581 14.5185 10.7941 14.2727 11.3875C14.0269 11.9809 13.6667 12.5201 13.2125 12.9743C12.2952 13.8916 11.0512 14.4069 9.75397 14.4069C8.45677 14.4069 7.2127 13.8916 6.29545 12.9743C5.37819 12.057 4.86288 10.813 4.86288 9.51575C4.86288 8.21854 5.37819 6.97447 6.29545 6.05721ZM15.7298 5.35304C15.8424 5.24687 15.9325 5.1192 15.9948 4.97758C16.0571 4.83596 16.0904 4.68328 16.0926 4.52857C16.0949 4.37386 16.0661 4.22027 16.0079 4.0769C15.9498 3.93353 15.8634 3.80328 15.754 3.69387C15.6446 3.58447 15.5144 3.49812 15.371 3.43996C15.2276 3.38179 15.074 3.35298 14.9193 3.35524C14.7646 3.35749 14.6119 3.39077 14.4703 3.45309C14.3287 3.51541 14.201 3.60551 14.0948 3.71806C13.8884 3.93695 13.7753 4.22769 13.7797 4.52857C13.7841 4.82945 13.9056 5.11677 14.1183 5.32955C14.3311 5.54232 14.6184 5.6638 14.9193 5.66818C15.2202 5.67257 15.5109 5.55952 15.7298 5.35304Z" fill="#838383"/>
</svg>
