<svg width="22" height="21" viewBox="0 0 22 21" fill="none" xmlns="http://www.w3.org/2000/svg">
<g filter="url(#filter0_d_853:1551)">
<path d="M19.9698 8.42742C19.913 8.26491 19.8098 8.12216 19.6726 8.0165C19.5354 7.91083 19.3701 7.84679 19.1969 7.83213L14.0828 7.09469L11.7909 2.50121C11.7173 2.35099 11.6024 2.2243 11.4594 2.13566C11.3163 2.04701 11.1509 2 10.982 2C10.8132 2 10.6478 2.04701 10.5047 2.13566C10.3616 2.2243 10.2467 2.35099 10.1731 2.50121L7.88126 7.0858L2.76722 7.83213C2.60088 7.85551 2.44449 7.9245 2.31581 8.0313C2.18713 8.13809 2.09131 8.2784 2.03921 8.43631C1.99153 8.59061 1.98725 8.75484 2.02684 8.91137C2.06642 9.0679 2.14838 9.21082 2.26391 9.32479L5.97586 12.8787L5.07708 17.9254C5.04079 18.0928 5.05421 18.267 5.11571 18.427C5.17722 18.5871 5.28419 18.7262 5.42376 18.8275C5.56334 18.9289 5.72956 18.9882 5.90245 18.9984C6.07534 19.0086 6.24752 18.9692 6.39828 18.8849L10.982 16.5127L15.5658 18.8849C15.6919 18.9553 15.8344 18.992 15.9792 18.9915C16.1696 18.9922 16.3553 18.9331 16.5095 18.8227C16.649 18.724 16.7569 18.5879 16.8206 18.4304C16.8843 18.273 16.9011 18.1008 16.869 17.9342L15.9703 12.8876L19.6822 9.33368C19.812 9.225 19.9079 9.08215 19.9588 8.92173C20.0097 8.76131 20.0135 8.5899 19.9698 8.42742ZM14.4423 11.9814C14.3383 12.0812 14.2603 12.2045 14.2149 12.3407C14.1695 12.4768 14.1581 12.6218 14.1817 12.7632L14.8288 16.4949L11.4494 14.7179C11.3181 14.6537 11.1735 14.6203 11.027 14.6203C10.8805 14.6203 10.7359 14.6537 10.6046 14.7179L7.22516 16.4949L7.87227 12.7632C7.89586 12.6218 7.88447 12.4768 7.83908 12.3407C7.79369 12.2045 7.71566 12.0812 7.61163 11.9814L4.9153 9.31591L8.69915 8.77393C8.84475 8.75391 8.98316 8.69889 9.10225 8.61369C9.22134 8.5285 9.31747 8.41573 9.38222 8.28526L10.982 4.90012L12.6717 8.29415C12.7365 8.42461 12.8326 8.53738 12.9517 8.62258C13.0708 8.70778 13.2092 8.7628 13.3548 8.78282L17.1387 9.32479L14.4423 11.9814Z" fill="#7E2DF9"/>
<path d="M19.9698 8.42742C19.913 8.26491 19.8098 8.12216 19.6726 8.0165C19.5354 7.91083 19.3701 7.84679 19.1969 7.83213L14.0828 7.09469L11.7909 2.50121C11.7173 2.35099 11.6024 2.2243 11.4594 2.13566C11.3163 2.04701 11.1509 2 10.982 2C10.8132 2 10.6478 2.04701 10.5047 2.13566C10.3616 2.2243 10.2467 2.35099 10.1731 2.50121L7.88126 7.0858L2.76722 7.83213C2.60088 7.85551 2.44449 7.9245 2.31581 8.0313C2.18713 8.13809 2.09131 8.2784 2.03921 8.43631C1.99153 8.59061 1.98725 8.75484 2.02684 8.91137C2.06642 9.0679 2.14838 9.21082 2.26391 9.32479L5.97586 12.8787L5.07708 17.9254C5.04079 18.0928 5.05421 18.267 5.11571 18.427C5.17722 18.5871 5.28419 18.7262 5.42376 18.8275C5.56334 18.9289 5.72956 18.9882 5.90245 18.9984C6.07534 19.0086 6.24752 18.9692 6.39828 18.8849L10.982 16.5127L15.5658 18.8849C15.6919 18.9553 15.8344 18.992 15.9792 18.9915C16.1696 18.9922 16.3553 18.9331 16.5095 18.8227C16.649 18.724 16.7569 18.5879 16.8206 18.4304C16.8843 18.273 16.9011 18.1008 16.869 17.9342L15.9703 12.8876L19.6822 9.33368C19.812 9.225 19.9079 9.08215 19.9588 8.92173C20.0097 8.76131 20.0135 8.5899 19.9698 8.42742ZM14.4423 11.9814C14.3383 12.0812 14.2603 12.2045 14.2149 12.3407C14.1695 12.4768 14.1581 12.6218 14.1817 12.7632L14.8288 16.4949L11.4494 14.7179C11.3181 14.6537 11.1735 14.6203 11.027 14.6203C10.8805 14.6203 10.7359 14.6537 10.6046 14.7179L7.22516 16.4949L7.87227 12.7632C7.89586 12.6218 7.88447 12.4768 7.83908 12.3407C7.79369 12.2045 7.71566 12.0812 7.61163 11.9814L4.9153 9.31591L8.69915 8.77393C8.84475 8.75391 8.98316 8.69889 9.10225 8.61369C9.22134 8.5285 9.31747 8.41573 9.38222 8.28526L10.982 4.90012L12.6717 8.29415C12.7365 8.42461 12.8326 8.53738 12.9517 8.62258C13.0708 8.70778 13.2092 8.7628 13.3548 8.78282L17.1387 9.32479L14.4423 11.9814Z" fill="url(#paint0_linear_853:1551)" fill-opacity="0.2"/>
</g>
<defs>
<filter id="filter0_d_853:1551" x="0" y="0" width="22" height="21" filterUnits="userSpaceOnUse" color-interpolation-filters="sRGB">
<feFlood flood-opacity="0" result="BackgroundImageFix"/>
<feColorMatrix in="SourceAlpha" type="matrix" values="0 0 0 0 0 0 0 0 0 0 0 0 0 0 0 0 0 0 127 0" result="hardAlpha"/>
<feOffset/>
<feGaussianBlur stdDeviation="1"/>
<feComposite in2="hardAlpha" operator="out"/>
<feColorMatrix type="matrix" values="0 0 0 0 0.403922 0 0 0 0 0.00392157 0 0 0 0 0.882353 0 0 0 1 0"/>
<feBlend mode="normal" in2="BackgroundImageFix" result="effect1_dropShadow_853:1551"/>
<feBlend mode="normal" in="SourceGraphic" in2="effect1_dropShadow_853:1551" result="shape"/>
</filter>
<linearGradient id="paint0_linear_853:1551" x1="11" y1="4.5" x2="11" y2="19" gradientUnits="userSpaceOnUse">
<stop stop-color="white"/>
<stop offset="1" stop-opacity="0"/>
</linearGradient>
</defs>
</svg>
