<svg width="20" height="25" viewBox="0 0 20 25" fill="none" xmlns="http://www.w3.org/2000/svg">
<g filter="url(#filter0_d_853:1430)">
<path d="M17.8646 8.60059C17.79 8.4293 17.6691 8.28231 17.5153 8.17627C17.3615 8.07022 17.1811 8.00936 16.9946 8.00059H12.4146L13.6846 3.26059C13.725 3.11226 13.7307 2.95661 13.7012 2.80572C13.6717 2.65483 13.6079 2.51278 13.5146 2.39059C13.4204 2.26823 13.2991 2.16934 13.1603 2.10168C13.0215 2.03402 12.869 1.99942 12.7146 2.00059H5.71455C5.48879 1.99285 5.26706 2.06179 5.08548 2.19616C4.90389 2.33053 4.77315 2.52242 4.71455 2.74059L2.03455 12.7406C1.99378 12.8916 1.98902 13.0502 2.02066 13.2034C2.05229 13.3566 2.11945 13.5003 2.21671 13.6228C2.31398 13.7454 2.43864 13.8434 2.58069 13.909C2.72273 13.9746 2.87818 14.006 3.03455 14.0006H6.88455L5.07455 20.7406C5.01525 20.9579 5.03107 21.1889 5.11946 21.3961C5.20784 21.6034 5.3636 21.7747 5.56151 21.8823C5.75942 21.9899 5.98787 22.0276 6.20986 21.9892C6.43184 21.9507 6.63434 21.8385 6.78455 21.6706L17.6846 9.67059C17.8143 9.52847 17.9004 9.35192 17.9323 9.16212C17.9642 8.97232 17.9407 8.77735 17.8646 8.60059ZM8.07455 17.2806L9.15455 13.2806C9.19967 13.1301 9.2087 12.9711 9.1809 12.8165C9.1531 12.6618 9.08926 12.5159 8.99455 12.3906C8.89935 12.2669 8.7765 12.1672 8.63585 12.0994C8.49519 12.0317 8.34064 11.9979 8.18455 12.0006H4.34455L6.48455 4.00059H11.4146L10.1446 8.74059C10.1038 8.89164 10.099 9.05016 10.1307 9.20339C10.1623 9.35662 10.2294 9.50029 10.3267 9.62284C10.424 9.7454 10.5486 9.84342 10.6907 9.90903C10.8327 9.97463 10.9882 10.006 11.1446 10.0006H14.7146L8.07455 17.2806Z" fill="#7E2DF9"/>
<path d="M17.8646 8.60059C17.79 8.4293 17.6691 8.28231 17.5153 8.17627C17.3615 8.07022 17.1811 8.00936 16.9946 8.00059H12.4146L13.6846 3.26059C13.725 3.11226 13.7307 2.95661 13.7012 2.80572C13.6717 2.65483 13.6079 2.51278 13.5146 2.39059C13.4204 2.26823 13.2991 2.16934 13.1603 2.10168C13.0215 2.03402 12.869 1.99942 12.7146 2.00059H5.71455C5.48879 1.99285 5.26706 2.06179 5.08548 2.19616C4.90389 2.33053 4.77315 2.52242 4.71455 2.74059L2.03455 12.7406C1.99378 12.8916 1.98902 13.0502 2.02066 13.2034C2.05229 13.3566 2.11945 13.5003 2.21671 13.6228C2.31398 13.7454 2.43864 13.8434 2.58069 13.909C2.72273 13.9746 2.87818 14.006 3.03455 14.0006H6.88455L5.07455 20.7406C5.01525 20.9579 5.03107 21.1889 5.11946 21.3961C5.20784 21.6034 5.3636 21.7747 5.56151 21.8823C5.75942 21.9899 5.98787 22.0276 6.20986 21.9892C6.43184 21.9507 6.63434 21.8385 6.78455 21.6706L17.6846 9.67059C17.8143 9.52847 17.9004 9.35192 17.9323 9.16212C17.9642 8.97232 17.9407 8.77735 17.8646 8.60059ZM8.07455 17.2806L9.15455 13.2806C9.19967 13.1301 9.2087 12.9711 9.1809 12.8165C9.1531 12.6618 9.08926 12.5159 8.99455 12.3906C8.89935 12.2669 8.7765 12.1672 8.63585 12.0994C8.49519 12.0317 8.34064 11.9979 8.18455 12.0006H4.34455L6.48455 4.00059H11.4146L10.1446 8.74059C10.1038 8.89164 10.099 9.05016 10.1307 9.20339C10.1623 9.35662 10.2294 9.50029 10.3267 9.62284C10.424 9.7454 10.5486 9.84342 10.6907 9.90903C10.8327 9.97463 10.9882 10.006 11.1446 10.0006H14.7146L8.07455 17.2806Z" fill="url(#paint0_linear_853:1430)" fill-opacity="0.2"/>
</g>
<defs>
<filter id="filter0_d_853:1430" x="0" y="0" width="19.9453" height="24.0038" filterUnits="userSpaceOnUse" color-interpolation-filters="sRGB">
<feFlood flood-opacity="0" result="BackgroundImageFix"/>
<feColorMatrix in="SourceAlpha" type="matrix" values="0 0 0 0 0 0 0 0 0 0 0 0 0 0 0 0 0 0 127 0" result="hardAlpha"/>
<feOffset/>
<feGaussianBlur stdDeviation="1"/>
<feComposite in2="hardAlpha" operator="out"/>
<feColorMatrix type="matrix" values="0 0 0 0 0.403922 0 0 0 0 0.00392157 0 0 0 0 0.882353 0 0 0 1 0"/>
<feBlend mode="normal" in2="BackgroundImageFix" result="effect1_dropShadow_853:1430"/>
<feBlend mode="normal" in="SourceGraphic" in2="effect1_dropShadow_853:1430" result="shape"/>
</filter>
<linearGradient id="paint0_linear_853:1430" x1="5" y1="2" x2="9.97307" y2="22.0038" gradientUnits="userSpaceOnUse">
<stop stop-color="white"/>
<stop offset="1" stop-opacity="0"/>
</linearGradient>
</defs>
</svg>
