<svg width="13" height="13" viewBox="0 0 13 13" fill="none" xmlns="http://www.w3.org/2000/svg">
<path d="M12.2929 1.30929L7.45573 6.14645C7.36196 6.24021 7.30929 6.36739 7.30929 6.5C7.30929 6.63261 7.36196 6.75979 7.45573 6.85355L12.2929 11.6907L11.6907 12.2929L6.85355 7.45573C6.75979 7.36196 6.63261 7.30929 6.5 7.30929C6.36739 7.30929 6.24021 7.36196 6.14645 7.45573L1.30929 12.2929L0.707107 11.6907L5.54427 6.85355C5.63804 6.75979 5.69071 6.63261 5.69071 6.5C5.69071 6.36739 5.63804 6.24021 5.54427 6.14645L0.707107 1.30929L1.30929 0.707107L6.14645 5.54427C6.24021 5.63804 6.36739 5.69071 6.5 5.69071C6.63261 5.69071 6.75979 5.63804 6.85355 5.54427L11.6907 0.707107L12.2929 1.30929Z" fill="#C4C4C4" stroke="#929292" stroke-linejoin="round"/>
</svg>
