<svg width="22" height="22" viewBox="0 0 22 22" fill="none" xmlns="http://www.w3.org/2000/svg">
<g filter="url(#filter0_d_853:1584)">
<path d="M19.1 3.8H16.4V2.9C16.4 2.66131 16.3052 2.43239 16.1364 2.2636C15.9676 2.09482 15.7387 2 15.5 2H6.5C6.2613 2 6.03239 2.09482 5.8636 2.2636C5.69482 2.43239 5.6 2.66131 5.6 2.9V3.8H2.9C2.66131 3.8 2.43239 3.89482 2.2636 4.0636C2.09482 4.23239 2 4.46131 2 4.7V7.4C2 8.35478 2.37928 9.27045 3.05442 9.94558C3.72955 10.6207 4.64522 11 5.6 11H6.986C7.80008 11.9082 8.89765 12.5141 10.1 12.719V14.6H9.2C8.48392 14.6 7.79716 14.8845 7.29081 15.3908C6.78446 15.8972 6.5 16.5839 6.5 17.3V19.1C6.5 19.3387 6.59482 19.5676 6.7636 19.7364C6.93239 19.9052 7.1613 20 7.4 20H14.6C14.8387 20 15.0676 19.9052 15.2364 19.7364C15.4052 19.5676 15.5 19.3387 15.5 19.1V17.3C15.5 16.5839 15.2155 15.8972 14.7092 15.3908C14.2028 14.8845 13.5161 14.6 12.8 14.6H11.9V12.719C13.1023 12.5141 14.1999 11.9082 15.014 11H16.4C17.3548 11 18.2705 10.6207 18.9456 9.94558C19.6207 9.27045 20 8.35478 20 7.4V4.7C20 4.46131 19.9052 4.23239 19.7364 4.0636C19.5676 3.89482 19.3387 3.8 19.1 3.8ZM5.6 9.2C5.12261 9.2 4.66477 9.01036 4.32721 8.67279C3.98964 8.33523 3.8 7.87739 3.8 7.4V5.6H5.6V7.4C5.60198 8.01354 5.70851 8.62225 5.915 9.2H5.6ZM12.8 16.4C13.0387 16.4 13.2676 16.4948 13.4364 16.6636C13.6052 16.8324 13.7 17.0613 13.7 17.3V18.2H8.3V17.3C8.3 17.0613 8.39482 16.8324 8.5636 16.6636C8.73239 16.4948 8.96131 16.4 9.2 16.4H12.8ZM14.6 7.4C14.6 8.35478 14.2207 9.27045 13.5456 9.94558C12.8705 10.6207 11.9548 11 11 11C10.0452 11 9.12955 10.6207 8.45442 9.94558C7.77928 9.27045 7.4 8.35478 7.4 7.4V3.8H14.6V7.4ZM18.2 7.4C18.2 7.87739 18.0104 8.33523 17.6728 8.67279C17.3352 9.01036 16.8774 9.2 16.4 9.2H16.085C16.2915 8.62225 16.398 8.01354 16.4 7.4V5.6H18.2V7.4Z" fill="#7E2DF9"/>
<path d="M19.1 3.8H16.4V2.9C16.4 2.66131 16.3052 2.43239 16.1364 2.2636C15.9676 2.09482 15.7387 2 15.5 2H6.5C6.2613 2 6.03239 2.09482 5.8636 2.2636C5.69482 2.43239 5.6 2.66131 5.6 2.9V3.8H2.9C2.66131 3.8 2.43239 3.89482 2.2636 4.0636C2.09482 4.23239 2 4.46131 2 4.7V7.4C2 8.35478 2.37928 9.27045 3.05442 9.94558C3.72955 10.6207 4.64522 11 5.6 11H6.986C7.80008 11.9082 8.89765 12.5141 10.1 12.719V14.6H9.2C8.48392 14.6 7.79716 14.8845 7.29081 15.3908C6.78446 15.8972 6.5 16.5839 6.5 17.3V19.1C6.5 19.3387 6.59482 19.5676 6.7636 19.7364C6.93239 19.9052 7.1613 20 7.4 20H14.6C14.8387 20 15.0676 19.9052 15.2364 19.7364C15.4052 19.5676 15.5 19.3387 15.5 19.1V17.3C15.5 16.5839 15.2155 15.8972 14.7092 15.3908C14.2028 14.8845 13.5161 14.6 12.8 14.6H11.9V12.719C13.1023 12.5141 14.1999 11.9082 15.014 11H16.4C17.3548 11 18.2705 10.6207 18.9456 9.94558C19.6207 9.27045 20 8.35478 20 7.4V4.7C20 4.46131 19.9052 4.23239 19.7364 4.0636C19.5676 3.89482 19.3387 3.8 19.1 3.8ZM5.6 9.2C5.12261 9.2 4.66477 9.01036 4.32721 8.67279C3.98964 8.33523 3.8 7.87739 3.8 7.4V5.6H5.6V7.4C5.60198 8.01354 5.70851 8.62225 5.915 9.2H5.6ZM12.8 16.4C13.0387 16.4 13.2676 16.4948 13.4364 16.6636C13.6052 16.8324 13.7 17.0613 13.7 17.3V18.2H8.3V17.3C8.3 17.0613 8.39482 16.8324 8.5636 16.6636C8.73239 16.4948 8.96131 16.4 9.2 16.4H12.8ZM14.6 7.4C14.6 8.35478 14.2207 9.27045 13.5456 9.94558C12.8705 10.6207 11.9548 11 11 11C10.0452 11 9.12955 10.6207 8.45442 9.94558C7.77928 9.27045 7.4 8.35478 7.4 7.4V3.8H14.6V7.4ZM18.2 7.4C18.2 7.87739 18.0104 8.33523 17.6728 8.67279C17.3352 9.01036 16.8774 9.2 16.4 9.2H16.085C16.2915 8.62225 16.398 8.01354 16.4 7.4V5.6H18.2V7.4Z" fill="url(#paint0_linear_853:1584)" fill-opacity="0.2"/>
</g>
<defs>
<filter id="filter0_d_853:1584" x="0" y="0" width="22" height="22" filterUnits="userSpaceOnUse" color-interpolation-filters="sRGB">
<feFlood flood-opacity="0" result="BackgroundImageFix"/>
<feColorMatrix in="SourceAlpha" type="matrix" values="0 0 0 0 0 0 0 0 0 0 0 0 0 0 0 0 0 0 127 0" result="hardAlpha"/>
<feOffset/>
<feGaussianBlur stdDeviation="1"/>
<feComposite in2="hardAlpha" operator="out"/>
<feColorMatrix type="matrix" values="0 0 0 0 0.403922 0 0 0 0 0.00392157 0 0 0 0 0.882353 0 0 0 1 0"/>
<feBlend mode="normal" in2="BackgroundImageFix" result="effect1_dropShadow_853:1584"/>
<feBlend mode="normal" in="SourceGraphic" in2="effect1_dropShadow_853:1584" result="shape"/>
</filter>
<linearGradient id="paint0_linear_853:1584" x1="7.85" y1="4.25" x2="11" y2="20" gradientUnits="userSpaceOnUse">
<stop stop-color="white"/>
<stop offset="1" stop-opacity="0"/>
</linearGradient>
</defs>
</svg>
