<svg width="21" height="15" viewBox="0 0 21 15" fill="none" xmlns="http://www.w3.org/2000/svg">
<path d="M20.4862 2.46612C20.3678 2.04353 20.137 1.66094 19.8185 1.35902C19.4909 1.04782 19.0895 0.825204 18.6521 0.712197C17.015 0.28069 10.4561 0.28069 10.4561 0.28069C7.72175 0.24958 4.98808 0.386409 2.27052 0.690403C1.83308 0.81176 1.43241 1.03935 1.10415 1.35292C0.781609 1.66325 0.547985 2.04594 0.425943 2.46525C0.132773 4.0446 -0.00966819 5.64824 0.000538018 7.25454C-0.00992275 8.85939 0.132169 10.4625 0.425943 12.0438C0.54537 12.4614 0.778122 12.8423 1.10153 13.1501C1.42495 13.4578 1.82769 13.6801 2.27052 13.7977C3.92943 14.2284 10.4561 14.2284 10.4561 14.2284C13.1939 14.2595 15.931 14.1227 18.6521 13.8187C19.0895 13.7057 19.4909 13.483 19.8185 13.1718C20.141 12.8641 20.3703 12.4814 20.4853 12.0647C20.7862 10.486 20.9324 8.8817 20.9221 7.27459C20.9447 5.66067 20.7986 4.0488 20.4862 2.46525V2.46612ZM8.3709 10.2393V4.2706L13.8279 7.25541L8.3709 10.2393Z" fill="#838383"/>
</svg>
