<svg width="20" height="23" viewBox="0 0 20 23" fill="none" xmlns="http://www.w3.org/2000/svg">
<path d="M1.94959 0.989303C2.29259 0.836455 2.67768 0.768458 3.06246 0.792791C3.44725 0.817124 3.81682 0.932846 4.13051 1.12722L18.8098 10.2008C19.0816 10.3686 19.3032 10.5903 19.4561 10.8472C19.609 11.1041 19.6887 11.3889 19.6887 11.6779C19.6887 11.9669 19.609 12.2518 19.4561 12.5087C19.3032 12.7656 19.0816 12.9872 18.8098 13.1551L4.13051 22.2287C3.81693 22.4229 3.44754 22.5385 3.06295 22.5628C2.67836 22.5872 2.29347 22.5193 1.95058 22.3666C1.60769 22.2139 1.32009 21.9824 1.11939 21.6974C0.918697 21.4125 0.812677 21.0852 0.812989 20.7515V2.6044C0.812586 2.27079 0.918458 1.94354 1.11897 1.65861C1.31949 1.37368 1.60689 1.1421 1.94959 0.989303V0.989303Z" fill="#DCDCDC"/>
</svg>
