<svg width="27" height="21" viewBox="0 0 27 21" fill="none" xmlns="http://www.w3.org/2000/svg">
<path d="M22.6717 2.13143C20.9652 1.36186 19.1361 0.793043 17.2233 0.469599C17.2063 0.466329 17.1886 0.468436 17.1729 0.47563C17.1571 0.482824 17.1439 0.494748 17.1352 0.509751C16.901 0.921305 16.64 1.45778 16.4571 1.8816C14.4284 1.57849 12.366 1.57849 10.3373 1.8816C10.1336 1.41189 9.90383 0.953899 9.64915 0.509751C9.64052 0.494563 9.62746 0.482369 9.61171 0.474797C9.59597 0.467224 9.57829 0.464632 9.56104 0.467368C7.64938 0.790812 5.82025 1.35963 4.11269 2.13031C4.098 2.13648 4.08554 2.14698 4.077 2.16043C0.606112 7.26303 -0.345259 12.2396 0.122061 17.1537C0.123362 17.1658 0.127098 17.1774 0.133042 17.1879C0.138986 17.1985 0.147013 17.2077 0.156636 17.2151C2.1825 18.69 4.44208 19.8136 6.84077 20.5387C6.85749 20.5439 6.87537 20.5439 6.89209 20.5387C6.9088 20.5335 6.92356 20.5234 6.93445 20.5097C7.44973 19.8182 7.90925 19.0877 8.30184 18.3203C8.32526 18.2757 8.30296 18.2222 8.25611 18.2043C7.53562 17.933 6.83752 17.6056 6.16823 17.2251C6.1562 17.2182 6.14607 17.2085 6.13873 17.1967C6.1314 17.185 6.1271 17.1716 6.12622 17.1578C6.12533 17.144 6.12789 17.1301 6.13367 17.1176C6.13944 17.105 6.14825 17.094 6.1593 17.0857C6.29984 16.982 6.44037 16.8738 6.5742 16.7656C6.58625 16.7559 6.60076 16.7497 6.61612 16.7477C6.63148 16.7457 6.64709 16.7481 6.6612 16.7544C11.0411 18.7219 15.7845 18.7219 20.1131 16.7544C20.1273 16.7477 20.143 16.745 20.1586 16.7468C20.1742 16.7486 20.1889 16.7547 20.2012 16.7645C20.3351 16.8738 20.4745 16.982 20.6161 17.0857C20.6273 17.0938 20.6362 17.1047 20.6422 17.1171C20.6482 17.1296 20.6509 17.1434 20.6503 17.1572C20.6496 17.171 20.6455 17.1844 20.6384 17.1963C20.6313 17.2081 20.6213 17.218 20.6094 17.2251C19.9425 17.6088 19.2487 17.9333 18.5204 18.2032C18.5092 18.2073 18.4991 18.2137 18.4905 18.222C18.482 18.2303 18.4754 18.2404 18.4711 18.2514C18.4667 18.2625 18.4648 18.2744 18.4654 18.2863C18.4661 18.2982 18.4692 18.3098 18.4747 18.3203C18.8762 19.0866 19.3357 19.816 19.841 20.5086C19.8515 20.5228 19.8661 20.5334 19.8829 20.539C19.8996 20.5446 19.9177 20.5449 19.9347 20.5398C22.3375 19.8167 24.6007 18.6926 26.6288 17.2151C26.6387 17.2081 26.647 17.1992 26.6532 17.1888C26.6593 17.1784 26.6632 17.1668 26.6645 17.1548C27.2222 11.4734 25.7299 6.53696 22.7062 2.16266C22.6988 2.14844 22.6866 2.13736 22.6717 2.13143ZM8.95654 14.1613C7.63822 14.1613 6.55078 12.969 6.55078 11.5068C6.55078 10.0435 7.61703 8.85237 8.95654 8.85237C10.3061 8.85237 11.3835 10.0536 11.3623 11.5068C11.3623 12.9701 10.296 14.1613 8.95654 14.1613ZM17.8512 14.1613C16.5318 14.1613 15.4455 12.969 15.4455 11.5068C15.4455 10.0435 16.5106 8.85237 17.8512 8.85237C19.2008 8.85237 20.2782 10.0536 20.257 11.5068C20.257 12.9701 19.2019 14.1613 17.8512 14.1613Z" fill="#F9F9F9"/>
</svg>
