<svg width="18" height="18" viewBox="0 0 18 18" fill="none" xmlns="http://www.w3.org/2000/svg">
<path d="M4.02957 18.0006H0.297654V5.98264H4.02957V18.0006ZM2.16136 4.3433C0.968177 4.3433 0 3.35455 0 2.16136C0 1.58813 0.227714 1.03838 0.633049 0.633049C1.03838 0.227714 1.58813 0 2.16136 0C2.73459 0 3.28434 0.227714 3.68968 0.633049C4.09501 1.03838 4.32273 1.58813 4.32273 2.16136C4.32273 3.35455 3.35455 4.3433 2.16136 4.3433ZM17.9968 18.0006H14.2732V12.1504C14.2732 10.756 14.2449 8.96818 12.333 8.96818C10.3928 8.96818 10.0951 10.4828 10.0951 12.0501V18.0006H6.36708V5.98264H9.946V7.62199H9.99807C10.4963 6.6776 11.7133 5.68113 13.5288 5.68113C17.3057 5.68113 18 8.16843 18 11.3989V18.0006H17.9968Z" fill="#F9F9F9"/>
</svg>
