<svg width="17" height="19" viewBox="0 0 17 19" fill="none" xmlns="http://www.w3.org/2000/svg">
<path d="M1.75075 0.525259C2.03876 0.396918 2.3621 0.339822 2.68519 0.360254C3.00829 0.380686 3.3186 0.477853 3.58199 0.641064L15.9077 8.25981C16.1359 8.40076 16.322 8.58685 16.4504 8.80259C16.5787 9.01833 16.6457 9.25748 16.6457 9.50014C16.6457 9.7428 16.5787 9.98195 16.4504 10.1977C16.322 10.4134 16.1359 10.5995 15.9077 10.7405L3.58199 18.3592C3.31869 18.5223 3.00853 18.6194 2.6856 18.6398C2.36268 18.6602 2.03949 18.6032 1.75158 18.475C1.46367 18.3468 1.22218 18.1524 1.05366 17.9132C0.885146 17.6739 0.796125 17.3991 0.796388 17.1189V1.8814C0.796049 1.60128 0.884946 1.3265 1.05331 1.08725C1.22168 0.848007 1.46299 0.653553 1.75075 0.525259Z" fill="#DCDCDC"/>
</svg>
