<svg width="25" height="25" viewBox="0 0 25 25" fill="none" xmlns="http://www.w3.org/2000/svg">
<g filter="url(#filter0_d_977:1130)">
<path d="M20.065 5.02H18.11V4.17C18.11 4.0765 18.0335 4 17.94 4H7.06C6.9665 4 6.89 4.0765 6.89 4.17V5.02H4.935C4.68702 5.02 4.4492 5.11851 4.27386 5.29386C4.09851 5.4692 4 5.70702 4 5.955V9.1C4 10.8361 5.275 12.279 6.93675 12.5425C7.26612 15.0118 9.24875 16.9561 11.735 17.2281V19.4636H7.57C7.19388 19.4636 6.89 19.7675 6.89 20.1436V20.83C6.89 20.9235 6.9665 21 7.06 21H17.94C18.0335 21 18.11 20.9235 18.11 20.83V20.1436C18.11 19.7675 17.8061 19.4636 17.43 19.4636H13.265V17.2281C15.7513 16.9561 17.7339 15.0118 18.0632 12.5425C19.725 12.279 21 10.8361 21 9.1V5.955C21 5.70702 20.9015 5.4692 20.7261 5.29386C20.5508 5.11851 20.313 5.02 20.065 5.02ZM5.53 9.1V6.55H6.89V10.9615C6.49527 10.8354 6.15083 10.5872 5.90638 10.2526C5.66193 9.91799 5.53013 9.51437 5.53 9.1ZM16.58 11.82C16.58 12.8634 16.1741 13.8472 15.4346 14.5846C14.6951 15.3241 13.7134 15.73 12.67 15.73H12.33C11.2866 15.73 10.3028 15.3241 9.56537 14.5846C8.82587 13.8451 8.42 12.8634 8.42 11.82V5.53H16.58V11.82ZM19.47 9.1C19.47 9.97125 18.8984 10.7108 18.11 10.9615V6.55H19.47V9.1Z" fill="#7E2DF9"/>
<path d="M20.065 5.02H18.11V4.17C18.11 4.0765 18.0335 4 17.94 4H7.06C6.9665 4 6.89 4.0765 6.89 4.17V5.02H4.935C4.68702 5.02 4.4492 5.11851 4.27386 5.29386C4.09851 5.4692 4 5.70702 4 5.955V9.1C4 10.8361 5.275 12.279 6.93675 12.5425C7.26612 15.0118 9.24875 16.9561 11.735 17.2281V19.4636H7.57C7.19388 19.4636 6.89 19.7675 6.89 20.1436V20.83C6.89 20.9235 6.9665 21 7.06 21H17.94C18.0335 21 18.11 20.9235 18.11 20.83V20.1436C18.11 19.7675 17.8061 19.4636 17.43 19.4636H13.265V17.2281C15.7513 16.9561 17.7339 15.0118 18.0632 12.5425C19.725 12.279 21 10.8361 21 9.1V5.955C21 5.70702 20.9015 5.4692 20.7261 5.29386C20.5508 5.11851 20.313 5.02 20.065 5.02ZM5.53 9.1V6.55H6.89V10.9615C6.49527 10.8354 6.15083 10.5872 5.90638 10.2526C5.66193 9.91799 5.53013 9.51437 5.53 9.1ZM16.58 11.82C16.58 12.8634 16.1741 13.8472 15.4346 14.5846C14.6951 15.3241 13.7134 15.73 12.67 15.73H12.33C11.2866 15.73 10.3028 15.3241 9.56537 14.5846C8.82587 13.8451 8.42 12.8634 8.42 11.82V5.53H16.58V11.82ZM19.47 9.1C19.47 9.97125 18.8984 10.7108 18.11 10.9615V6.55H19.47V9.1Z" fill="url(#paint0_linear_977:1130)" fill-opacity="0.2"/>
</g>
<defs>
<filter id="filter0_d_977:1130" x="0" y="0" width="25" height="25" filterUnits="userSpaceOnUse" color-interpolation-filters="sRGB">
<feFlood flood-opacity="0" result="BackgroundImageFix"/>
<feColorMatrix in="SourceAlpha" type="matrix" values="0 0 0 0 0 0 0 0 0 0 0 0 0 0 0 0 0 0 127 0" result="hardAlpha"/>
<feOffset/>
<feGaussianBlur stdDeviation="2"/>
<feComposite in2="hardAlpha" operator="out"/>
<feColorMatrix type="matrix" values="0 0 0 0 0.494118 0 0 0 0 0.176471 0 0 0 0 0.976471 0 0 0 0.5 0"/>
<feBlend mode="normal" in2="BackgroundImageFix" result="effect1_dropShadow_977:1130"/>
<feBlend mode="normal" in="SourceGraphic" in2="effect1_dropShadow_977:1130" result="shape"/>
</filter>
<linearGradient id="paint0_linear_977:1130" x1="12.5" y1="4" x2="12.5" y2="21" gradientUnits="userSpaceOnUse">
<stop stop-color="white"/>
<stop offset="1" stop-color="white" stop-opacity="0"/>
</linearGradient>
</defs>
</svg>
