<svg width="21" height="15" viewBox="0 0 21 15" fill="none" xmlns="http://www.w3.org/2000/svg">
<path d="M19.3793 1H4.72414C4.38134 1 4.10345 1.29101 4.10345 1.65L1 13.35C1 13.709 1.27789 14 1.62069 14H16.2759C16.6187 14 16.8966 13.709 16.8966 13.35L20 1.65C20 1.29101 19.7221 1 19.3793 1Z" stroke="white" stroke-width="2" stroke-linecap="round" stroke-linejoin="round"/>
<path d="M14.0345 5.103C14.0345 5.92608 13.7076 6.71546 13.1256 7.29747C12.5435 7.87948 11.7542 8.20644 10.9311 8.20644C10.108 8.20644 9.31863 7.87948 8.73662 7.29747C8.15461 6.71546 7.82764 5.92608 7.82764 5.103" stroke="white" stroke-width="2" stroke-linecap="round" stroke-linejoin="round"/>
</svg>
