<svg width="53" height="37" viewBox="0 0 53 37" fill="none" xmlns="http://www.w3.org/2000/svg">
<path d="M34.755 0L10.6989 7.55894L0 25.0568L9.96884 21.9346L0.797218 37L12.1506 33.4444C13.865 32.9071 15.326 31.7686 16.2608 30.2399L16.3104 30.1586L26.5067 13.4863L30.7048 6.62115L31.1246 5.93556L34.755 0ZM14.8183 12.2407L18.8344 10.9992L17.1004 13.8373C16.8491 14.248 16.4562 14.5527 15.995 14.6938L12.6986 15.7016L14.8183 12.2407Z" fill="#C4C4C4"/>
<path d="M49.5535 6.39778L52.9988 0.722656L35.5396 6.18572L31.3426 13.0498L38.957 10.6647L30.0201 19.5557L26.1074 25.9534L43.2791 20.5758C44.3907 20.2279 45.3378 19.4898 45.9438 18.4995L48.9744 13.5481L39.9445 16.416L47.896 8.52145C48.5298 7.88013 49.0861 7.16778 49.5535 6.39778Z" fill="#C4C4C4"/>
</svg>
