<svg width="19" height="15" viewBox="0 0 19 15" fill="none" xmlns="http://www.w3.org/2000/svg">
<path d="M18.9207 7.125C17.0024 2.72813 13.3936 0 9.5 0C5.60636 0 1.99761 2.72813 0.0792829 7.125C0.026991 7.24328 0 7.37095 0 7.5C0 7.62905 0.026991 7.75672 0.0792829 7.875C1.99761 12.2719 5.60636 15 9.5 15C13.3936 15 17.0024 12.2719 18.9207 7.875C18.973 7.75672 19 7.62905 19 7.5C19 7.37095 18.973 7.24328 18.9207 7.125ZM9.5 13.125C6.48955 13.125 3.64054 10.9781 1.99761 7.5C3.64054 4.02187 6.48955 1.875 9.5 1.875C12.5105 1.875 15.3595 4.02187 17.0024 7.5C15.3595 10.9781 12.5105 13.125 9.5 13.125ZM9.5 3.75C8.74869 3.75 8.01426 3.96993 7.38957 4.38199C6.76488 4.79404 6.27799 5.37971 5.99048 6.06494C5.70297 6.75016 5.62774 7.50416 5.77431 8.23159C5.92089 8.95902 6.28268 9.6272 6.81393 10.1517C7.34518 10.6761 8.02204 11.0333 8.75891 11.1779C9.49579 11.3226 10.2596 11.2484 10.9537 10.9645C11.6478 10.6807 12.2411 10.2001 12.6585 9.58339C13.0759 8.9667 13.2987 8.24168 13.2987 7.5C13.2987 6.50544 12.8985 5.55161 12.1861 4.84835C11.4737 4.14509 10.5075 3.75 9.5 3.75ZM9.5 9.375C9.12435 9.375 8.75713 9.26503 8.44478 9.05901C8.13244 8.85298 7.889 8.56014 7.74524 8.21753C7.60148 7.87492 7.56387 7.49792 7.63716 7.13421C7.71044 6.77049 7.89134 6.4364 8.15697 6.17418C8.42259 5.91195 8.76102 5.73337 9.12946 5.66103C9.49789 5.58868 9.87979 5.62581 10.2268 5.76773C10.5739 5.90964 10.8705 6.14996 11.0792 6.45831C11.2879 6.76665 11.3993 7.12916 11.3993 7.5C11.3993 7.99728 11.1992 8.47419 10.843 8.82582C10.4868 9.17746 10.0037 9.375 9.5 9.375Z" fill="#929292"/>
</svg>
